<?xml version="1.0" encoding="UTF-8" standalone="no"?>
<!-- Created with Inkscape (http://www.inkscape.org/) -->

<svg
   xmlns:dc="http://purl.org/dc/elements/1.1/"
   xmlns:cc="http://creativecommons.org/ns#"
   xmlns:rdf="http://www.w3.org/1999/02/22-rdf-syntax-ns#"
   xmlns:svg="http://www.w3.org/2000/svg"
   xmlns="http://www.w3.org/2000/svg"
   xmlns:sodipodi="http://sodipodi.sourceforge.net/DTD/sodipodi-0.dtd"
   xmlns:inkscape="http://www.inkscape.org/namespaces/inkscape"
   width="330.49908"
   height="380"
   viewBox="0 0 87.444549 100.54166"
   version="1.1"
   id="svg12553"
   inkscape:version="0.92.4 (5da689c313, 2019-01-14)"
   sodipodi:docname="Seq.svg">
  <defs
     id="defs12547">
    <pattern
       patternUnits="userSpaceOnUse"
       width="65.478515"
       height="11.396484"
       patternTransform="matrix(0.26458333,0,0,0.26458333,59.124032,165.74693)"
       id="pattern4440">
      <text
         id="text4384-1-4-3"
         y="8.90625"
         x="-0.60351562"
         style="font-style:normal;font-weight:normal;font-size:7.99999952px;line-height:1.25;font-family:sans-serif;letter-spacing:0px;word-spacing:0px;fill:#000000;fill-opacity:1;stroke:none;stroke-width:0.99999994"
         xml:space="preserve"><tspan
           style="font-style:normal;font-variant:normal;font-weight:bold;font-stretch:normal;font-size:12px;font-family:sans-serif;-inkscape-font-specification:'sans-serif Bold';stroke-width:0.99999994"
           y="8.90625"
           x="-0.60351562"
           id="tspan4382-2-9-3"
           sodipodi:role="line">GRID SEQ</tspan></text>
    </pattern>
  </defs>
  <sodipodi:namedview
     id="base"
     pagecolor="#ffffff"
     bordercolor="#666666"
     borderopacity="1.0"
     inkscape:pageopacity="0.0"
     inkscape:pageshadow="2"
     inkscape:zoom="2.8"
     inkscape:cx="151.13898"
     inkscape:cy="146.3453"
     inkscape:document-units="mm"
     inkscape:current-layer="layer1"
     showgrid="false"
     fit-margin-top="0"
     fit-margin-left="0"
     fit-margin-right="0"
     fit-margin-bottom="0"
     units="px"
     inkscape:window-width="1920"
     inkscape:window-height="1057"
     inkscape:window-x="1912"
     inkscape:window-y="-8"
     inkscape:window-maximized="1"
     showguides="true"
     inkscape:guide-bbox="true">
    <inkscape:grid
       type="xygrid"
       id="grid12870"
       originx="-20.372917"
       originy="84.666661" />
    <sodipodi:guide
       position="53.186634,85.927151"
       orientation="0,1"
       id="guide3851"
       inkscape:locked="false" />
  </sodipodi:namedview>
  <metadata
     id="metadata12550">
    <rdf:RDF>
      <cc:Work
         rdf:about="">
        <dc:format>image/svg+xml</dc:format>
        <dc:type
           rdf:resource="http://purl.org/dc/dcmitype/StillImage" />
        <dc:title />
      </cc:Work>
    </rdf:RDF>
  </metadata>
  <g
     inkscape:label="Layer 1"
     inkscape:groupmode="layer"
     id="layer1"
     transform="translate(-26.543497,-161.30655)">
    <path
       style="fill:#e6e6e6;fill-opacity:1;fill-rule:nonzero;stroke:none;stroke-width:0.27602378"
       d="m 26.717065,161.94782 h 87.297895 v 100.3961 H 26.717065 Z m 0,0"
       id="path33453"
       inkscape:connector-curvature="0" />
    <path
       style="fill:none;stroke:#000000;stroke-width:0.18383184;stroke-linecap:round;stroke-linejoin:round;stroke-miterlimit:10;stroke-opacity:1"
       d="M 31.535655,196.58908 H 108.99592"
       id="path35483"
       inkscape:connector-curvature="0" />
    <path
       inkscape:connector-curvature="0"
       id="path7375"
       d="m 31.482924,174.1527 c 0.250164,0 0.418359,-0.0776 0.564991,-0.20701 0.0217,-0.0216 0.04313,-0.0561 0.04313,-0.0992 0,-0.0647 -0.06038,-0.12508 -0.129381,-0.12508 -0.0345,0 -0.06038,0.0129 -0.08194,0.0302 -0.112131,0.0949 -0.224261,0.15095 -0.383858,0.15095 -0.297577,0 -0.513212,-0.24583 -0.513212,-0.54773 v -0.004 c 0,-0.3019 0.215635,-0.54773 0.513212,-0.54773 0.146659,0 0.258789,0.0561 0.366607,0.14232 0.0172,0.0129 0.04313,0.0259 0.08194,0.0259 0.07332,0 0.133694,-0.0604 0.133694,-0.1337 0,-0.0474 -0.0217,-0.0863 -0.05175,-0.10782 -0.133694,-0.10351 -0.293264,-0.17683 -0.53049,-0.17683 -0.470085,0 -0.797877,0.36228 -0.797877,0.80219 v 0.004 c 0,0.44423 0.336417,0.79357 0.784939,0.79357 z m 0,0"
       style="fill:#000000;fill-opacity:1;stroke:none;stroke-width:0.27602378" />
    <path
       inkscape:connector-curvature="0"
       id="path7371"
       d="m 32.449659,173.98882 c 0,0.0776 0.06038,0.13801 0.138006,0.13801 h 0.832406 c 0.069,0 0.125068,-0.0561 0.125068,-0.12508 0,-0.069 -0.05607,-0.12076 -0.125068,-0.12076 h -0.698685 v -1.17741 c 0,-0.0733 -0.06038,-0.1337 -0.133721,-0.1337 -0.07763,0 -0.138006,0.0604 -0.138006,0.1337 z m 0,0"
       style="fill:#000000;fill-opacity:1;stroke:none;stroke-width:0.27602378" />
    <path
       inkscape:connector-curvature="0"
       id="path7367"
       d="m 34.520658,174.1527 c 0.474425,0 0.810816,-0.36228 0.810816,-0.79788 v -0.004 c 0,-0.4356 -0.332079,-0.79788 -0.806503,-0.79788 -0.474398,0 -0.810816,0.3666 -0.810816,0.8022 v 0.004 c 0,0.4356 0.332105,0.79357 0.806503,0.79356 z m 0.0042,-0.25014 c -0.306202,0 -0.52615,-0.25015 -0.52615,-0.54774 v -0.004 c 0,-0.3019 0.215635,-0.54773 0.521838,-0.54773 0.306229,0 0.526177,0.25015 0.526177,0.55205 v 0.004 c 0,0.29758 -0.215636,0.54342 -0.521865,0.54342 z m 0,0"
       style="fill:#000000;fill-opacity:1;stroke:none;stroke-width:0.27602378" />
    <path
       inkscape:connector-curvature="0"
       id="path7363"
       d="m 36.418911,174.1527 c 0.250164,0 0.418359,-0.0776 0.564992,-0.20701 0.0217,-0.0216 0.04313,-0.0561 0.04313,-0.0992 0,-0.0647 -0.06038,-0.12508 -0.129382,-0.12508 -0.0345,0 -0.06038,0.0129 -0.08194,0.0302 -0.112131,0.0949 -0.224261,0.15095 -0.383858,0.15095 -0.297576,0 -0.513212,-0.24583 -0.513212,-0.54773 v -0.004 c 0,-0.3019 0.215636,-0.54773 0.513212,-0.54773 0.146659,0 0.258789,0.0561 0.366607,0.14232 0.0172,0.0129 0.04313,0.0259 0.08194,0.0259 0.07332,0 0.133693,-0.0604 0.133693,-0.1337 0,-0.0474 -0.0217,-0.0863 -0.05175,-0.10782 -0.133694,-0.10351 -0.293264,-0.17683 -0.53049,-0.17683 -0.470085,0 -0.797877,0.36228 -0.797877,0.80219 v 0.004 c 0,0.44423 0.336418,0.79357 0.784939,0.79357 z m 0,0"
       style="fill:#000000;fill-opacity:1;stroke:none;stroke-width:0.27602378" />
    <path
       inkscape:connector-curvature="0"
       id="path7359"
       d="m 37.385593,174.00175 c 0,0.0776 0.06038,0.13802 0.138007,0.13802 0.07334,0 0.13372,-0.0604 0.13372,-0.13802 v -0.31915 l 0.250137,-0.24152 0.500301,0.63399 c 0.02593,0.0345 0.06038,0.0647 0.11213,0.0647 0.07763,0 0.138007,-0.0604 0.138007,-0.1337 0,-0.0431 -0.0172,-0.069 -0.03881,-0.0992 l -0.521864,-0.64693 0.48305,-0.46147 c 0.03019,-0.0302 0.04744,-0.0604 0.04744,-0.10351 0,-0.0647 -0.04744,-0.12508 -0.125069,-0.12508 -0.04744,0 -0.08194,0.0172 -0.11213,0.0517 l -0.733187,0.7375 v -0.65555 c 0,-0.0733 -0.06038,-0.1337 -0.13372,-0.1337 -0.07763,0 -0.138007,0.0604 -0.138007,0.1337 z m 0,0"
       style="fill:#000000;fill-opacity:1;stroke:none;stroke-width:0.27602378" />
    <path
       inkscape:connector-curvature="0"
       id="path7355"
       d="m 62.229492,174.14839 c 0.323479,0 0.552053,-0.17251 0.552053,-0.46148 v -0.004 c 0,-0.25445 -0.168196,-0.3709 -0.495988,-0.45285 -0.297577,-0.069 -0.370893,-0.12507 -0.370893,-0.24152 v -0.004 c 0,-0.10351 0.09488,-0.18545 0.25445,-0.18545 0.120756,0 0.232886,0.0431 0.353642,0.11645 0.0217,0.0129 0.04315,0.0216 0.07334,0.0216 0.069,0 0.125069,-0.0561 0.125069,-0.12508 0,-0.0517 -0.02593,-0.0906 -0.06038,-0.10782 -0.138033,-0.0949 -0.293291,-0.14664 -0.487363,-0.14664 -0.306202,0 -0.530489,0.18546 -0.530489,0.44854 v 0.004 c 0,0.28465 0.185446,0.38385 0.517551,0.46148 0.284639,0.069 0.34933,0.12939 0.34933,0.23721 v 0.004 c 0,0.11645 -0.107818,0.19408 -0.276014,0.19408 -0.168195,0 -0.306202,-0.0561 -0.431297,-0.15958 -0.0172,-0.0129 -0.04313,-0.0216 -0.08194,-0.0216 -0.069,0 -0.125069,0.0561 -0.125069,0.12508 0,0.0431 0.0217,0.0819 0.05175,0.1035 0.172508,0.12939 0.370919,0.19408 0.582242,0.19408 z m 0,0"
       style="fill:#000000;fill-opacity:1;stroke:none;stroke-width:0.27602378" />
    <path
       inkscape:connector-curvature="0"
       id="path7351"
       d="m 63.518621,174.00175 c 0,0.0776 0.06038,0.13802 0.138007,0.13802 0.07332,0 0.138006,-0.0604 0.138006,-0.13802 v -1.16878 h 0.375232 c 0.069,0 0.125069,-0.0561 0.125069,-0.12508 0,-0.069 -0.05607,-0.12507 -0.125069,-0.12507 h -1.026477 c -0.069,0 -0.125069,0.0561 -0.125069,0.12507 0,0.069 0.05607,0.12508 0.125069,0.12508 h 0.375232 z m 0,0"
       style="fill:#000000;fill-opacity:1;stroke:none;stroke-width:0.27602378" />
    <path
       inkscape:connector-curvature="0"
       id="path7347"
       d="m 64.743324,174.12683 h 0.910035 c 0.06469,0 0.120756,-0.0517 0.120756,-0.12076 0,-0.069 -0.05607,-0.12076 -0.120756,-0.12076 h -0.776314 v -0.41835 h 0.664183 c 0.069,0 0.120756,-0.0517 0.120756,-0.11645 0,-0.069 -0.05175,-0.12507 -0.120756,-0.12507 h -0.664183 v -0.4011 h 0.763376 c 0.069,0 0.120755,-0.0517 0.120755,-0.12076 0,-0.069 -0.05175,-0.12076 -0.120755,-0.12076 h -0.897097 c -0.07763,0 -0.138006,0.0561 -0.138006,0.1337 v 1.2723 c 0,0.0776 0.06038,0.13801 0.138006,0.13801 z m 0,0"
       style="fill:#000000;fill-opacity:1;stroke:none;stroke-width:0.27602378" />
    <path
       inkscape:connector-curvature="0"
       id="path7343"
       d="m 66.130508,174.00175 c 0,0.0776 0.06038,0.13802 0.138007,0.13802 0.07334,0 0.13372,-0.0604 0.13372,-0.13802 v -0.3709 h 0.306203 c 0.34073,0 0.621056,-0.18114 0.621056,-0.53049 v -0.004 c 0,-0.31052 -0.228573,-0.51323 -0.590867,-0.51323 h -0.470112 c -0.07763,0 -0.138007,0.0561 -0.138007,0.1337 z m 0.271727,-0.61674 v -0.55636 h 0.314828 c 0.202697,0 0.336418,0.0949 0.336418,0.27603 v 0.004 c 0,0.15957 -0.129408,0.27602 -0.336418,0.27602 z m 0,0"
       style="fill:#000000;fill-opacity:1;stroke:none;stroke-width:0.27602378" />
    <path
       inkscape:connector-curvature="0"
       id="path7339"
       d="m 68.202011,174.14839 c 0.323479,0 0.552053,-0.17251 0.552053,-0.46148 v -0.004 c 0,-0.25445 -0.168196,-0.3709 -0.495988,-0.45285 -0.297577,-0.069 -0.370893,-0.12507 -0.370893,-0.24152 v -0.004 c 0,-0.10351 0.09488,-0.18545 0.25445,-0.18545 0.120756,0 0.232886,0.0431 0.353642,0.11645 0.0217,0.0129 0.04315,0.0216 0.07334,0.0216 0.069,0 0.125069,-0.0561 0.125069,-0.12508 0,-0.0517 -0.02593,-0.0906 -0.06038,-0.10782 -0.138033,-0.0949 -0.293291,-0.14664 -0.487363,-0.14664 -0.306202,0 -0.530489,0.18546 -0.530489,0.44854 v 0.004 c 0,0.28465 0.185446,0.38385 0.517551,0.46148 0.284639,0.069 0.34933,0.12939 0.34933,0.23721 v 0.004 c 0,0.11645 -0.107818,0.19408 -0.276014,0.19408 -0.168195,0 -0.306202,-0.0561 -0.431297,-0.15958 -0.0172,-0.0129 -0.04313,-0.0216 -0.08194,-0.0216 -0.069,0 -0.125069,0.0561 -0.125069,0.12508 0,0.0431 0.0217,0.0819 0.05175,0.1035 0.172508,0.12939 0.370919,0.19408 0.582242,0.19408 z m 0,0"
       style="fill:#000000;fill-opacity:1;stroke:none;stroke-width:0.27602378" />
    <path
       inkscape:connector-curvature="0"
       id="path7335"
       d="m 42.895329,175.35142 c 0,0.0604 0.05175,0.10782 0.112131,0.10782 0.06038,0 0.112156,-0.0474 0.112156,-0.10782 v -0.34072 h 0.276014 l 0.306202,0.39247 c 0.02593,0.0345 0.05607,0.0561 0.107844,0.0561 0.05175,0 0.103505,-0.0388 0.103505,-0.10351 0,-0.0345 -0.01296,-0.0561 -0.0345,-0.0819 l -0.241539,-0.3019 c 0.168223,-0.0561 0.284666,-0.17683 0.284666,-0.37522 v -0.004 c 0,-0.11213 -0.0345,-0.2027 -0.103505,-0.27171 -0.07766,-0.0776 -0.202724,-0.12507 -0.362294,-0.12507 h -0.448548 c -0.06038,0 -0.112131,0.0474 -0.112131,0.11213 z m 0.224287,-0.5348 v -0.42266 h 0.319141 c 0.163883,0 0.258762,0.0733 0.258762,0.21133 0,0.12939 -0.09919,0.21133 -0.258762,0.21133 z m 0,0"
       style="fill:#000000;fill-opacity:1;stroke:none;stroke-width:0.27602378" />
    <path
       inkscape:connector-curvature="0"
       id="path7331"
       d="m 44.769241,175.47218 c 0.327765,0 0.539115,-0.18977 0.539115,-0.56499 v -0.61243 c 0,-0.0604 -0.04744,-0.10782 -0.107818,-0.10782 -0.06472,0 -0.112157,0.0474 -0.112157,0.10782 v 0.62106 c 0,0.23289 -0.120756,0.34934 -0.314828,0.34934 -0.198384,0 -0.31914,-0.12507 -0.31914,-0.35797 v -0.61243 c 0,-0.0604 -0.04747,-0.10782 -0.107844,-0.10782 -0.06469,0 -0.112131,0.0474 -0.112131,0.10782 v 0.62106 c 0,0.36659 0.20701,0.55636 0.534803,0.55636 z m 0,0"
       style="fill:#000000;fill-opacity:1;stroke:none;stroke-width:0.27602378" />
    <path
       inkscape:connector-curvature="0"
       id="path7327"
       d="m 45.679857,175.35142 c 0,0.0604 0.05175,0.10782 0.112131,0.10782 0.06038,0 0.107844,-0.0474 0.107844,-0.10782 v -0.79789 l 0.646906,0.8367 c 0.03021,0.0388 0.0604,0.069 0.112157,0.069 h 0.0087 c 0.06038,0 0.107818,-0.0517 0.107818,-0.11213 v -1.05234 c 0,-0.0604 -0.04744,-0.10783 -0.107818,-0.10783 -0.06038,0 -0.107844,0.0474 -0.107844,0.10783 v 0.772 l -0.629656,-0.81513 c -0.03019,-0.0388 -0.0604,-0.0647 -0.112156,-0.0647 h -0.02593 c -0.06038,0 -0.11213,0.0517 -0.11213,0.11213 z m 0,0"
       style="fill:#000000;fill-opacity:1;stroke:none;stroke-width:0.27602378" />
    <path
       inkscape:connector-curvature="0"
       id="path7323"
       d="m 52.036525,175.35142 c 0,0.0604 0.05175,0.10782 0.11213,0.10782 0.06038,0 0.112157,-0.0474 0.112157,-0.10782 v -0.34072 h 0.276013 l 0.306203,0.39247 c 0.02593,0.0345 0.05606,0.0561 0.107844,0.0561 0.05175,0 0.103505,-0.0388 0.103505,-0.10351 0,-0.0345 -0.01297,-0.0561 -0.0345,-0.0819 l -0.24154,-0.30191 c 0.168222,-0.0561 0.284665,-0.17682 0.284665,-0.37522 v -0.004 c 0,-0.11213 -0.0345,-0.2027 -0.103505,-0.27171 -0.07766,-0.0776 -0.202724,-0.12507 -0.362294,-0.12507 h -0.448548 c -0.06038,0 -0.11213,0.0474 -0.11213,0.11213 z m 0.224287,-0.5348 v -0.42266 h 0.31914 c 0.163883,0 0.258763,0.0733 0.258763,0.21133 0,0.12939 -0.09919,0.21133 -0.258763,0.21133 z m 0,0"
       style="fill:#000000;fill-opacity:1;stroke:none;stroke-width:0.27602378" />
    <path
       inkscape:connector-curvature="0"
       id="path7319"
       d="m 53.509169,175.45061 h 0.741812 c 0.05178,0 0.09922,-0.0431 0.09922,-0.0992 0,-0.0517 -0.04744,-0.0992 -0.09922,-0.0992 h -0.629655 v -0.3364 h 0.539088 c 0.05175,0 0.09919,-0.0431 0.09919,-0.0949 0,-0.0561 -0.04744,-0.10351 -0.09919,-0.10351 h -0.539088 v -0.32347 h 0.62103 c 0.05178,0 0.09491,-0.0431 0.09491,-0.0992 0,-0.0561 -0.04313,-0.0992 -0.09491,-0.0992 h -0.733187 c -0.06038,0 -0.11213,0.0474 -0.11213,0.11214 v 1.03077 c 0,0.0647 0.05175,0.11214 0.11213,0.11214 z m 0,0"
       style="fill:#000000;fill-opacity:1;stroke:none;stroke-width:0.27602378" />
    <path
       inkscape:connector-curvature="0"
       id="path7315"
       d="m 55.092885,175.46786 c 0.267388,0 0.448522,-0.13801 0.448522,-0.37522 v -0.004 c 0,-0.20701 -0.133694,-0.3019 -0.401082,-0.36659 -0.241511,-0.0561 -0.297603,-0.0992 -0.297603,-0.19839 0,-0.0863 0.07334,-0.15095 0.202724,-0.15095 0.09919,0 0.194072,0.0302 0.288951,0.0949 0.0172,0.0129 0.0345,0.0173 0.05606,0.0173 0.06038,0 0.107818,-0.0474 0.107818,-0.10351 0,-0.0431 -0.02593,-0.0733 -0.05175,-0.0863 -0.112131,-0.0776 -0.237199,-0.11645 -0.39677,-0.11645 -0.250163,0 -0.426984,0.14664 -0.426984,0.36228 v 0.004 c 0,0.2329 0.146632,0.31053 0.414046,0.37522 0.237199,0.0517 0.284639,0.10351 0.284639,0.18977 v 0.004 c 0,0.0949 -0.08625,0.15957 -0.219948,0.15957 -0.138007,0 -0.250137,-0.0474 -0.353669,-0.12938 -0.01296,-0.0129 -0.0345,-0.0216 -0.06469,-0.0216 -0.05607,0 -0.103505,0.0474 -0.103505,0.10351 0,0.0345 0.0172,0.0647 0.04313,0.0863 0.138006,0.10351 0.301916,0.15526 0.470111,0.15526 z m 0,0"
       style="fill:#000000;fill-opacity:1;stroke:none;stroke-width:0.27602378" />
    <path
       inkscape:connector-curvature="0"
       id="path7311"
       d="m 55.975059,175.45061 h 0.741812 c 0.05178,0 0.09922,-0.0431 0.09922,-0.0992 0,-0.0517 -0.04744,-0.0992 -0.09922,-0.0992 h -0.629655 v -0.3364 h 0.539089 c 0.05175,0 0.09919,-0.0431 0.09919,-0.0949 0,-0.0561 -0.04744,-0.10351 -0.09919,-0.10351 h -0.539089 v -0.32347 h 0.62103 c 0.05178,0 0.09491,-0.0431 0.09491,-0.0992 0,-0.0561 -0.04313,-0.0992 -0.09491,-0.0992 h -0.733187 c -0.06038,0 -0.11213,0.0474 -0.11213,0.11214 v 1.03077 c 0,0.0647 0.05175,0.11214 0.11213,0.11214 z m 0,0"
       style="fill:#000000;fill-opacity:1;stroke:none;stroke-width:0.27602378" />
    <path
       inkscape:connector-curvature="0"
       id="path7307"
       d="m 57.445693,175.35142 c 0,0.0604 0.05175,0.10782 0.11213,0.10782 0.06038,0 0.112131,-0.0474 0.112131,-0.10782 v -0.95315 h 0.306202 c 0.05609,0 0.09922,-0.0474 0.09922,-0.0992 0,-0.0561 -0.04313,-0.10351 -0.09922,-0.10351 h -0.836692 c -0.05607,0 -0.09919,0.0474 -0.09919,0.10351 0,0.0517 0.04313,0.0992 0.09919,0.0992 h 0.306229 z m 0,0"
       style="fill:#000000;fill-opacity:1;stroke:none;stroke-width:0.27602378" />
    <path
       style="fill:none;stroke:#000000;stroke-width:0.18383184;stroke-linecap:round;stroke-linejoin:round;stroke-miterlimit:10;stroke-opacity:1"
       d="m 34.74558,181.31115 v 10.7908"
       id="path35805"
       inkscape:connector-curvature="0" />
    <path
       style="fill:none;stroke:#000000;stroke-width:0.18383184;stroke-linecap:round;stroke-linejoin:round;stroke-miterlimit:10;stroke-opacity:1"
       d="m 55.118497,179.72419 v 10.78972"
       id="path35809"
       inkscape:connector-curvature="0" />
    <path
       style="fill:none;stroke:#000000;stroke-width:0.18383184;stroke-linecap:round;stroke-linejoin:round;stroke-miterlimit:10;stroke-opacity:1"
       d="m 65.172664,179.72419 v 10.78972"
       id="path35817"
       inkscape:connector-curvature="0" />
    <path
       inkscape:connector-curvature="0"
       id="path7303"
       d="m 41.048061,185.72278 h 0.741813 c 0.05178,0 0.09922,-0.0431 0.09922,-0.0992 0,-0.0517 -0.04744,-0.0992 -0.09922,-0.0992 h -0.629656 v -0.3364 h 0.539089 c 0.05175,0 0.09919,-0.0431 0.09919,-0.0949 0,-0.0561 -0.04744,-0.10351 -0.09919,-0.10351 h -0.539089 v -0.32346 h 0.62103 c 0.05178,0 0.09491,-0.0431 0.09491,-0.0992 0,-0.0561 -0.04313,-0.0992 -0.09491,-0.0992 h -0.733187 c -0.06038,0 -0.11213,0.0474 -0.11213,0.11213 v 1.03077 c 0,0.0647 0.05175,0.11214 0.11213,0.11214 z m 0,0"
       style="fill:#000000;fill-opacity:1;stroke:none;stroke-width:0.27602378" />
    <path
       inkscape:connector-curvature="0"
       id="path7299"
       d="m 42.13198,185.62789 c 0,0.0647 0.05175,0.10351 0.103505,0.10351 0.04744,0 0.07763,-0.0216 0.107818,-0.0604 l 0.332105,-0.43129 0.336391,0.43992 c 0.02593,0.0345 0.05175,0.0517 0.09922,0.0517 0.06469,0 0.11213,-0.0474 0.11213,-0.10782 0,-0.0302 -0.0172,-0.0604 -0.0345,-0.0819 l -0.370919,-0.46148 0.349356,-0.4356 c 0.0217,-0.0302 0.0345,-0.0517 0.0345,-0.0863 0,-0.0604 -0.05175,-0.0992 -0.09919,-0.0992 -0.04747,0 -0.07766,0.0216 -0.107844,0.0604 l -0.314828,0.40972 -0.314854,-0.41834 c -0.03019,-0.0345 -0.05607,-0.0517 -0.103505,-0.0517 -0.06038,0 -0.107818,0.0474 -0.107818,0.10782 0,0.0302 0.0172,0.0561 0.0345,0.0819 l 0.349356,0.43559 -0.37092,0.46148 c -0.0217,0.0259 -0.0345,0.0518 -0.0345,0.0819 z m 0,0"
       style="fill:#000000;fill-opacity:1;stroke:none;stroke-width:0.27602378" />
    <path
       inkscape:connector-curvature="0"
       id="path7295"
       d="m 43.851428,185.62358 c 0,0.0604 0.05175,0.10782 0.11213,0.10782 0.06038,0 0.11213,-0.0474 0.11213,-0.10782 v -0.95314 h 0.306203 c 0.05609,0 0.09922,-0.0475 0.09922,-0.0992 0,-0.0561 -0.04313,-0.1035 -0.09922,-0.1035 h -0.836692 c -0.05607,0 -0.09919,0.0474 -0.09919,0.1035 0,0.0517 0.04313,0.0992 0.09919,0.0992 h 0.306229 z m 0,0"
       style="fill:#000000;fill-opacity:1;stroke:none;stroke-width:0.27602378" />
    <path
       inkscape:connector-curvature="0"
       id="path7287"
       d="m 45.828288,185.74434 c 0.202698,0 0.336418,-0.0647 0.452861,-0.1682 0.0217,-0.0173 0.03881,-0.0474 0.03881,-0.0776 0,-0.0561 -0.05175,-0.10351 -0.107818,-0.10351 -0.02593,0 -0.04744,0.009 -0.06469,0.0259 -0.09059,0.0776 -0.18116,0.12076 -0.314854,0.12076 -0.237199,0 -0.414046,-0.2027 -0.414046,-0.44853 0,-0.24584 0.176847,-0.44423 0.414046,-0.44423 0.120756,0 0.215635,0.0431 0.301916,0.11214 0.01296,0.0129 0.0345,0.0216 0.06469,0.0216 0.06038,0 0.11213,-0.0474 0.11213,-0.10782 0,-0.0388 -0.0217,-0.069 -0.04313,-0.0863 -0.11213,-0.0863 -0.237225,-0.14232 -0.431297,-0.14232 -0.379519,0 -0.646933,0.29327 -0.646933,0.64693 v 0.004 c 0,0.36228 0.271727,0.64693 0.638307,0.64693 z m 0,0"
       style="fill:#000000;fill-opacity:1;stroke:none;stroke-width:0.27602378" />
    <path
       inkscape:connector-curvature="0"
       id="path7283"
       d="m 46.622144,185.61064 c 0,0.0647 0.05175,0.11214 0.112131,0.11214 h 0.677121 c 0.05607,0 0.103532,-0.0431 0.103532,-0.0992 0,-0.0561 -0.04747,-0.10351 -0.103532,-0.10351 h -0.564965 v -0.95314 c 0,-0.0604 -0.05178,-0.10782 -0.112156,-0.10782 -0.06038,0 -0.112131,0.0474 -0.112131,0.10782 z m 0,0"
       style="fill:#000000;fill-opacity:1;stroke:none;stroke-width:0.27602378" />
    <path
       inkscape:connector-curvature="0"
       id="path7279"
       d="m 47.77668,185.62358 c 0,0.0604 0.05175,0.10782 0.11213,0.10782 0.06038,0 0.112157,-0.0474 0.112157,-0.10782 v -0.26308 l 0.202698,-0.19408 0.405394,0.51323 c 0.0217,0.0302 0.04744,0.0517 0.09059,0.0517 0.06469,0 0.11213,-0.0474 0.11213,-0.10782 0,-0.0345 -0.01297,-0.0561 -0.03019,-0.0776 l -0.422672,-0.52617 0.38817,-0.37522 c 0.02593,-0.0259 0.04313,-0.0517 0.04313,-0.0863 0,-0.0517 -0.04313,-0.0992 -0.103505,-0.0992 -0.03884,0 -0.06472,0.0129 -0.09059,0.0388 l -0.595154,0.59949 v -0.53048 c 0,-0.0604 -0.05178,-0.10782 -0.112157,-0.10782 -0.06038,0 -0.11213,0.0474 -0.11213,0.10782 z m 0,0"
       style="fill:#000000;fill-opacity:1;stroke:none;stroke-width:0.27602378" />
    <path
       style="fill:#000000;fill-opacity:1;fill-rule:nonzero;stroke:none;stroke-width:0.27602378"
       d="m 79.014605,187.26933 c 0,-0.35581 -0.291121,-0.64693 -0.646906,-0.64693 h -6.281711 c -0.355812,0 -0.646933,0.29112 -0.646933,0.64693 v 6.28278 c 0,0.35581 0.291121,0.64693 0.646933,0.64693 h 6.281711 c 0.355785,0 0.646906,-0.29112 0.646906,-0.64693 z m 0,0"
       id="path37367"
       inkscape:connector-curvature="0" />
    <path
       style="fill:#000000;fill-opacity:1;fill-rule:nonzero;stroke:none;stroke-width:0.27602378"
       d="m 89.333355,187.26933 c 0,-0.35581 -0.291121,-0.64693 -0.646959,-0.64693 h -6.281684 c -0.355812,0 -0.646907,0.29112 -0.646907,0.64693 v 6.28278 c 0,0.35581 0.291095,0.64693 0.646907,0.64693 h 6.281684 c 0.355838,0 0.646959,-0.29112 0.646959,-0.64693 z m 0,0"
       id="path37369"
       inkscape:connector-curvature="0" />
    <path
       style="fill:#000000;fill-opacity:1;fill-rule:nonzero;stroke:none;stroke-width:0.27602378"
       d="m 99.387522,187.26933 c 0,-0.35581 -0.291121,-0.64693 -0.646906,-0.64693 h -6.28277 c -0.355838,0 -0.645874,0.29112 -0.645874,0.64693 v 6.28278 c 0,0.35581 0.290036,0.64693 0.645874,0.64693 h 6.28277 c 0.355785,0 0.646906,-0.29112 0.646906,-0.64693 z m 0,0"
       id="path37371"
       inkscape:connector-curvature="0" />
    <text
       xml:space="preserve"
       style="font-style:normal;font-weight:normal;font-size:2.11666667px;line-height:1.25;font-family:sans-serif;letter-spacing:0px;word-spacing:0px;fill:#000000;fill-opacity:1;stroke:none;stroke-width:0.26458332;"
       x="82.720207"
       y="175.00819"
       id="text4368"><tspan
         sodipodi:role="line"
         id="tspan4366"
         x="82.720207"
         y="177.58299"
         style="stroke-width:0.26458332;font-size:2.11666667px;" /></text>
    <text
       xml:space="preserve"
       style="font-style:normal;font-weight:normal;font-size:2.11666667px;line-height:1.25;font-family:sans-serif;letter-spacing:0px;word-spacing:0px;fill:#000000;fill-opacity:1;stroke:none;stroke-width:0.26458332;"
       x="84.468346"
       y="175.03181"
       id="text4372"><tspan
         sodipodi:role="line"
         id="tspan4370"
         x="84.468346"
         y="177.60661"
         style="stroke-width:0.26458332;font-size:2.11666667px;" /></text>
    <text
       xml:space="preserve"
       style="font-style:normal;font-weight:normal;font-size:2.11666656px;line-height:1.25;font-family:sans-serif;letter-spacing:0px;word-spacing:0px;fill:#000000;fill-opacity:1;stroke:none;stroke-width:0.26458332"
       x="94.768196"
       y="175.81139"
       id="text4380"><tspan
         sodipodi:role="line"
         id="tspan4378"
         x="94.768196"
         y="177.74249"
         style="stroke-width:0.26458332" /></text>
    <path
       style="fill:#000000;fill-opacity:1;fill-rule:nonzero;stroke:none;stroke-width:0.27602378"
       d="m 109.42279,187.26932 c 0,-0.35581 -0.29112,-0.64693 -0.64691,-0.64693 h -6.28277 c -0.35583,0 -0.64587,0.29112 -0.64587,0.64693 v 6.28278 c 0,0.35581 0.29004,0.64693 0.64587,0.64693 h 6.28277 c 0.35579,0 0.64691,-0.29112 0.64691,-0.64693 z m 0,0"
       id="path37371-4"
       inkscape:connector-curvature="0" />
    <path
       style="fill:none;stroke:#000000;stroke-width:0.18383184;stroke-linecap:round;stroke-linejoin:round;stroke-miterlimit:10;stroke-opacity:1"
       d="m 75.186552,178.81138 v 9.31992"
       id="path35817-9"
       inkscape:connector-curvature="0" />
    <path
       style="fill:none;stroke:#000000;stroke-width:0.18383184;stroke-linecap:round;stroke-linejoin:round;stroke-miterlimit:10;stroke-opacity:1"
       d="m 85.348166,179.16008 v 9.19972"
       id="path35817-9-5"
       inkscape:connector-curvature="0" />
    <path
       style="fill:none;stroke:#000000;stroke-width:0.18383184;stroke-linecap:round;stroke-linejoin:round;stroke-miterlimit:10;stroke-opacity:1"
       d="m 95.301089,178.94272 v 9.09064"
       id="path35817-9-7"
       inkscape:connector-curvature="0" />
    <path
       style="fill:none;stroke:#000000;stroke-width:0.18383184;stroke-linecap:round;stroke-linejoin:round;stroke-miterlimit:10;stroke-opacity:1"
       d="m 105.49195,178.80021 v 9.46472"
       id="path35817-9-8"
       inkscape:connector-curvature="0" />
    <path
       style="fill:none;stroke:#000000;stroke-width:0.18383184;stroke-linecap:round;stroke-linejoin:round;stroke-miterlimit:10;stroke-opacity:1"
       d="m 106.25663,202.79334 v 9.46472"
       id="path35817-9-8-6"
       inkscape:connector-curvature="0" />
    <g
       aria-label="GATE"
       style="font-style:normal;font-weight:normal;font-size:2.11666656px;line-height:1.25;font-family:sans-serif;letter-spacing:0px;word-spacing:0px;fill:#000000;fill-opacity:1;stroke:none;stroke-width:0.26458332"
       id="text3870"
       transform="translate(-0.10022607,4.1688826)">
      <g
         aria-label="GATE"
         style="font-style:normal;font-weight:normal;font-size:2.11666656px;line-height:1.25;font-family:sans-serif;letter-spacing:0px;word-spacing:0px;fill:#000000;fill-opacity:1;stroke:none;stroke-width:0.07000434"
         id="text4791">
        <path
           d="m 73.562569,171.64969 q -0.120579,0.047 -0.319533,0.0941 -0.198954,0.0458 -0.396703,0.0458 -0.458198,0 -0.717441,-0.24839 -0.259243,-0.2496 -0.259243,-0.6885 0,-0.41841 0.261655,-0.67404 0.261655,-0.25683 0.729499,-0.25683 0.17725,0 0.337619,0.0326 0.160369,0.0314 0.356912,0.12661 v 0.42081 h -0.05185 q -0.03376,-0.0253 -0.09887,-0.0711 -0.06511,-0.047 -0.125402,-0.0796 -0.06994,-0.0386 -0.163986,-0.0663 -0.09284,-0.0277 -0.197749,-0.0277 -0.12299,0 -0.22307,0.0362 -0.10008,0.0362 -0.179661,0.11094 -0.07596,0.0723 -0.120579,0.18448 -0.04341,0.11093 -0.04341,0.25683 0,0.29783 0.157958,0.45579 0.157957,0.15796 0.466638,0.15796 0.02653,0 0.05788,-0.001 0.03256,-0.001 0.05908,-0.004 v -0.35209 h -0.358118 v -0.33882 h 0.828374 z"
           style="font-style:normal;font-variant:normal;font-weight:bold;font-stretch:normal;font-size:2.46944451px;font-family:sans-serif;-inkscape-font-specification:'sans-serif, Bold';font-variant-ligatures:normal;font-variant-caps:normal;font-variant-numeric:normal;font-feature-settings:normal;text-align:start;writing-mode:lr-tb;text-anchor:start;stroke-width:0.07000434"
           id="path4793"
           inkscape:connector-curvature="0" />
        <path
           d="m 75.63531,171.75218 h -0.478696 l -0.124195,-0.36294 h -0.665593 l -0.124196,0.36294 h -0.466638 l 0.663181,-1.79541 h 0.532956 z m -0.715029,-0.69212 -0.220659,-0.64389 -0.220658,0.64389 z"
           style="font-style:normal;font-variant:normal;font-weight:bold;font-stretch:normal;font-size:2.46944451px;font-family:sans-serif;-inkscape-font-specification:'sans-serif, Bold';font-variant-ligatures:normal;font-variant-caps:normal;font-variant-numeric:normal;font-feature-settings:normal;text-align:start;writing-mode:lr-tb;text-anchor:start;stroke-width:0.07000434"
           id="path4795"
           inkscape:connector-curvature="0" />
        <path
           d="m 77.300497,170.30404 h -0.560689 v 1.44814 h -0.463021 v -1.44814 h -0.560689 v -0.34727 h 1.584399 z"
           style="font-style:normal;font-variant:normal;font-weight:bold;font-stretch:normal;font-size:2.46944451px;font-family:sans-serif;-inkscape-font-specification:'sans-serif, Bold';font-variant-ligatures:normal;font-variant-caps:normal;font-variant-numeric:normal;font-feature-settings:normal;text-align:start;writing-mode:lr-tb;text-anchor:start;stroke-width:0.07000434"
           id="path4797"
           inkscape:connector-curvature="0" />
        <path
           d="m 78.877662,171.75218 h -1.298629 v -1.79541 h 1.298629 v 0.34727 h -0.838019 v 0.30988 h 0.77773 v 0.34727 h -0.77773 v 0.44373 h 0.838019 z"
           style="font-style:normal;font-variant:normal;font-weight:bold;font-stretch:normal;font-size:2.46944451px;font-family:sans-serif;-inkscape-font-specification:'sans-serif, Bold';font-variant-ligatures:normal;font-variant-caps:normal;font-variant-numeric:normal;font-feature-settings:normal;text-align:start;writing-mode:lr-tb;text-anchor:start;stroke-width:0.07000434"
           id="path4799"
           inkscape:connector-curvature="0" />
      </g>
    </g>
    <g
       aria-label="PATTERN"
       style="font-style:normal;font-weight:normal;font-size:2.11666656px;line-height:1.25;font-family:sans-serif;letter-spacing:0px;word-spacing:0px;fill:#000000;fill-opacity:1;stroke:none;stroke-width:0.26458332"
       id="text3870-3"
       transform="translate(-5.6072877,2.4507536)">
      <path
         d="m 102.437,207.30324 q 0,0.10232 -0.0362,0.19017 -0.0351,0.0868 -0.0992,0.15089 -0.0796,0.0796 -0.1881,0.11989 -0.10852,0.0393 -0.27388,0.0393 h -0.20464 v 0.57361 h -0.20464 v -1.53893 h 0.41754 q 0.1385,0 0.23462,0.0238 0.0961,0.0227 0.17053,0.0724 0.0879,0.0589 0.13539,0.14676 0.0486,0.0879 0.0486,0.22221 z m -0.21291,0.005 q 0,-0.0796 -0.0279,-0.1385 -0.0279,-0.0589 -0.0847,-0.0961 -0.0496,-0.032 -0.11368,-0.0455 -0.063,-0.0145 -0.1602,-0.0145 h -0.20257 v 0.61495 h 0.1726 q 0.12402,0 0.20153,-0.0217 0.0775,-0.0227 0.1261,-0.0713 0.0486,-0.0496 0.0682,-0.10438 0.0207,-0.0548 0.0207,-0.12299 z"
         style="stroke-width:0.26458332"
         id="path4745"
         inkscape:connector-curvature="0" />
      <path
         d="m 103.87153,208.37708 h -0.21807 l -0.1509,-0.42892 h -0.66559 l -0.15089,0.42892 h -0.20774 l 0.56017,-1.53893 h 0.27285 z m -0.43201,-0.60462 -0.26975,-0.75551 -0.27079,0.75551 z"
         style="stroke-width:0.26458332"
         id="path4747"
         inkscape:connector-curvature="0" />
      <path
         d="m 105.07869,207.02005 h -0.54983 v 1.35703 h -0.20464 v -1.35703 h -0.54984 v -0.1819 h 1.30431 z"
         style="stroke-width:0.26458332"
         id="path4749"
         inkscape:connector-curvature="0" />
      <path
         d="m 106.31479,207.02005 h -0.54983 v 1.35703 h -0.20464 v -1.35703 h -0.54984 v -0.1819 h 1.30431 z"
         style="stroke-width:0.26458332"
         id="path4751"
         inkscape:connector-curvature="0" />
      <path
         d="m 107.53746,208.37708 h -1.01389 v -1.53893 h 1.01389 v 0.1819 h -0.80925 v 0.42168 h 0.80925 v 0.1819 h -0.80925 v 0.57154 h 0.80925 z"
         style="stroke-width:0.26458332"
         id="path4753"
         inkscape:connector-curvature="0" />
      <path
         d="m 109.13633,208.37708 h -0.26562 l -0.5147,-0.61185 h -0.28835 v 0.61185 h -0.20464 v -1.53893 h 0.43098 q 0.13953,0 0.23255,0.0186 0.093,0.0176 0.16743,0.0641 0.0837,0.0527 0.13022,0.13333 0.0475,0.0796 0.0475,0.20257 0,0.1664 -0.0837,0.27905 -0.0837,0.11162 -0.23048,0.16847 z m -0.47853,-1.10588 q 0,-0.0661 -0.0238,-0.11679 -0.0227,-0.0517 -0.0765,-0.0868 -0.0444,-0.03 -0.10542,-0.0413 -0.061,-0.0124 -0.14366,-0.0124 h -0.24081 v 0.58084 h 0.2067 q 0.0972,0 0.1695,-0.0165 0.0724,-0.0176 0.12299,-0.0641 0.0465,-0.0434 0.0682,-0.0992 0.0227,-0.0568 0.0227,-0.14366 z"
         style="stroke-width:0.26458332"
         id="path4755"
         inkscape:connector-curvature="0" />
      <path
         d="m 110.50885,208.37708 h -0.25321 l -0.72967,-1.37666 v 1.37666 h -0.1912 v -1.53893 h 0.31729 l 0.66559,1.25677 v -1.25677 h 0.1912 z"
         style="stroke-width:0.26458332"
         id="path4757"
         inkscape:connector-curvature="0" />
    </g>
    <g
       aria-label="PITCH"
       style="font-style:normal;font-weight:normal;font-size:2.11666656px;line-height:1.25;font-family:sans-serif;letter-spacing:0px;word-spacing:0px;fill:#000000;fill-opacity:1;stroke:none;stroke-width:0.26458332"
       id="text4762"
       transform="translate(-0.03340869,0.4312726)">
      <path
         d="m 102.9045,174.26105 q 0,0.12058 -0.0422,0.23634 -0.0422,0.11455 -0.12058,0.19292 -0.10731,0.10611 -0.23995,0.16037 -0.13143,0.0543 -0.32797,0.0543 h -0.28818 v 0.58481 h -0.46302 v -1.79542 h 0.76205 q 0.17122,0 0.28818,0.0301 0.11817,0.0289 0.2086,0.088 0.10852,0.0711 0.1652,0.18207 0.0579,0.11094 0.0579,0.26648 z m -0.47869,0.0108 q 0,-0.076 -0.041,-0.13022 -0.041,-0.0555 -0.0953,-0.0772 -0.0723,-0.0289 -0.14107,-0.0314 -0.0687,-0.004 -0.18328,-0.004 h -0.0796 v 0.53778 h 0.13263 q 0.11817,0 0.19413,-0.0145 0.0772,-0.0145 0.12902,-0.0579 0.0446,-0.0386 0.0639,-0.0916 0.0205,-0.0543 0.0205,-0.13144 z"
         style="font-style:normal;font-variant:normal;font-weight:bold;font-stretch:normal;font-size:2.46944451px;font-family:sans-serif;-inkscape-font-specification:'sans-serif, Bold';font-variant-ligatures:normal;font-variant-caps:normal;font-variant-numeric:normal;font-feature-settings:normal;text-align:start;writing-mode:lr-tb;text-anchor:start;stroke-width:0.26458332"
         id="path4764"
         inkscape:connector-curvature="0" />
      <path
         d="m 104.20193,175.48975 h -1.05145 v -0.31833 h 0.29421 v -1.15876 h -0.29421 v -0.31833 h 1.05145 v 0.31833 h -0.29421 v 1.15876 h 0.29421 z"
         style="font-style:normal;font-variant:normal;font-weight:bold;font-stretch:normal;font-size:2.46944451px;font-family:sans-serif;-inkscape-font-specification:'sans-serif, Bold';font-variant-ligatures:normal;font-variant-caps:normal;font-variant-numeric:normal;font-feature-settings:normal;text-align:start;writing-mode:lr-tb;text-anchor:start;stroke-width:0.26458332"
         id="path4766"
         inkscape:connector-curvature="0" />
      <path
         d="m 105.98649,174.0416 h -0.56069 v 1.44815 h -0.46302 v -1.44815 h -0.56069 v -0.34727 h 1.5844 z"
         style="font-style:normal;font-variant:normal;font-weight:bold;font-stretch:normal;font-size:2.46944451px;font-family:sans-serif;-inkscape-font-specification:'sans-serif, Bold';font-variant-ligatures:normal;font-variant-caps:normal;font-variant-numeric:normal;font-feature-settings:normal;text-align:start;writing-mode:lr-tb;text-anchor:start;stroke-width:0.26458332"
         id="path4768"
         inkscape:connector-curvature="0" />
      <path
         d="m 107.07651,175.52471 q -0.20016,0 -0.37017,-0.0591 -0.16881,-0.0591 -0.2906,-0.17604 -0.12178,-0.11696 -0.1893,-0.2918 -0.0663,-0.17484 -0.0663,-0.40394 0,-0.21342 0.0639,-0.38706 0.0639,-0.17363 0.18569,-0.29783 0.11696,-0.11937 0.28938,-0.18448 0.17364,-0.0651 0.37862,-0.0651 0.11334,0 0.20378,0.0133 0.0916,0.0121 0.16881,0.0326 0.0808,0.0229 0.1459,0.0519 0.0663,0.0277 0.11575,0.0518 v 0.43529 h -0.053 q -0.0338,-0.0289 -0.0856,-0.0687 -0.0507,-0.0398 -0.11576,-0.0784 -0.0663,-0.0386 -0.14349,-0.0651 -0.0772,-0.0265 -0.16519,-0.0265 -0.0977,0 -0.18569,0.0314 -0.088,0.0301 -0.16278,0.10128 -0.0711,0.0687 -0.11576,0.18208 -0.0434,0.11334 -0.0434,0.27491 0,0.16881 0.047,0.28216 0.0482,0.11334 0.12058,0.17845 0.0735,0.0663 0.16399,0.0953 0.0904,0.0277 0.17845,0.0277 0.0844,0 0.1664,-0.0253 0.0832,-0.0253 0.15314,-0.0687 0.0591,-0.035 0.10972,-0.0748 0.0506,-0.0398 0.0832,-0.0687 h 0.0482 v 0.42926 q -0.0675,0.0301 -0.12902,0.0567 -0.0615,0.0265 -0.12902,0.0458 -0.088,0.0253 -0.16519,0.0386 -0.0772,0.0133 -0.21222,0.0133 z"
         style="font-style:normal;font-variant:normal;font-weight:bold;font-stretch:normal;font-size:2.46944451px;font-family:sans-serif;-inkscape-font-specification:'sans-serif, Bold';font-variant-ligatures:normal;font-variant-caps:normal;font-variant-numeric:normal;font-feature-settings:normal;text-align:start;writing-mode:lr-tb;text-anchor:start;stroke-width:0.26458332"
         id="path4770"
         inkscape:connector-curvature="0" />
      <path
         d="m 109.66413,175.48975 h -0.46303 v -0.791 h -0.68367 v 0.791 h -0.46303 v -1.79542 h 0.46303 v 0.65716 h 0.68367 v -0.65716 h 0.46303 z"
         style="font-style:normal;font-variant:normal;font-weight:bold;font-stretch:normal;font-size:2.46944451px;font-family:sans-serif;-inkscape-font-specification:'sans-serif, Bold';font-variant-ligatures:normal;font-variant-caps:normal;font-variant-numeric:normal;font-feature-settings:normal;text-align:start;writing-mode:lr-tb;text-anchor:start;stroke-width:0.26458332"
         id="path4772"
         inkscape:connector-curvature="0" />
    </g>
    <g
       aria-label="Y"
       style="font-style:normal;font-weight:normal;font-size:2.11666656px;line-height:1.25;font-family:sans-serif;letter-spacing:0px;word-spacing:0px;fill:#000000;fill-opacity:1;stroke:none;stroke-width:0.26458332"
       id="text4777"
       transform="translate(-0.00537238,0.17169657)">
      <path
         d="m 96.104994,173.95396 -0.661975,1.10088 v 0.69453 h -0.46302 v -0.67282 l -0.672828,-1.12259 h 0.525722 l 0.388262,0.69453 0.374999,-0.69453 z"
         style="font-style:normal;font-variant:normal;font-weight:bold;font-stretch:normal;font-size:2.46944451px;font-family:sans-serif;-inkscape-font-specification:'sans-serif, Bold';font-variant-ligatures:normal;font-variant-caps:normal;font-variant-numeric:normal;font-feature-settings:normal;text-align:start;writing-mode:lr-tb;text-anchor:start;stroke-width:0.26458332"
         id="path4779"
         inkscape:connector-curvature="0" />
    </g>
    <g
       aria-label="X"
       style="font-style:normal;font-weight:normal;font-size:2.11666656px;line-height:1.25;font-family:sans-serif;letter-spacing:0px;word-spacing:0px;fill:#000000;fill-opacity:1;stroke:none;stroke-width:0.26458332"
       id="text4784"
       transform="translate(-0.32026046,0.3310926)">
      <path
         d="m 86.397892,175.58997 h -0.535368 l -0.387057,-0.59084 -0.394291,0.59084 h -0.511252 l 0.636654,-0.90434 -0.62339,-0.89108 h 0.534162 l 0.373792,0.55949 0.384645,-0.55949 h 0.512458 l -0.627007,0.87299 z"
         style="font-style:normal;font-variant:normal;font-weight:bold;font-stretch:normal;font-size:2.46944451px;font-family:sans-serif;-inkscape-font-specification:'sans-serif, Bold';font-variant-ligatures:normal;font-variant-caps:normal;font-variant-numeric:normal;font-feature-settings:normal;text-align:start;writing-mode:lr-tb;text-anchor:start;stroke-width:0.26458332"
         id="path4786"
         inkscape:connector-curvature="0" />
    </g>
    <g
       aria-label="2D GRID SEQ"
       style="font-style:normal;font-weight:normal;font-size:2.11666656px;line-height:1.25;font-family:sans-serif;letter-spacing:0px;word-spacing:0px;fill:#000000;fill-opacity:1;stroke:none;stroke-width:0.26458332"
       id="text4598"
       transform="translate(0.37797619,1.4174107)">
      <path
         d="m 56.934553,166.8817 h -2.41639 v -0.5085 q 0.276986,-0.2005 0.553971,-0.42581 0.279053,-0.22531 0.446485,-0.38861 0.250114,-0.24184 0.355534,-0.42168 0.105419,-0.17983 0.105419,-0.35553 0,-0.21084 -0.136425,-0.32453 -0.134359,-0.11575 -0.388607,-0.11575 -0.190169,0 -0.401009,0.0785 -0.208773,0.0786 -0.388607,0.20051 h -0.06615 v -0.6842 q 0.146761,-0.0641 0.432015,-0.12816 0.287321,-0.0641 0.574642,-0.0641 0.578776,0 0.882634,0.24391 0.303857,0.24184 0.303857,0.68626 0,0.29146 -0.146761,0.55397 -0.144694,0.26252 -0.444417,0.54157 -0.188103,0.17363 -0.378272,0.3204 -0.190169,0.14469 -0.270784,0.20257 h 1.382861 z"
         style="font-style:normal;font-variant:normal;font-weight:bold;font-stretch:normal;font-size:4.23333311px;font-family:sans-serif;-inkscape-font-specification:'sans-serif, Bold';font-variant-ligatures:normal;font-variant-caps:normal;font-variant-numeric:normal;font-feature-settings:normal;text-align:start;writing-mode:lr-tb;text-anchor:start;stroke-width:0.26458332"
         id="path4600"
         inkscape:connector-curvature="0" />
      <path
         d="m 60.446483,165.34588 q 0,0.42994 -0.19637,0.77101 -0.196371,0.33899 -0.496094,0.5209 -0.225309,0.13642 -0.494027,0.19017 -0.268717,0.0537 -0.636653,0.0537 h -1.085205 v -3.07785 h 1.11621 q 0.376205,0 0.649056,0.0641 0.272852,0.062 0.458887,0.17777 0.318327,0.1943 0.500228,0.52503 0.183968,0.32866 0.183968,0.77515 z m -0.820622,-0.006 q 0,-0.30385 -0.111621,-0.51883 -0.109554,-0.21704 -0.349332,-0.33899 -0.121957,-0.06 -0.250114,-0.0806 -0.126091,-0.0227 -0.382406,-0.0227 h -0.200505 v 1.9265 h 0.200505 q 0.283187,0 0.415479,-0.0248 0.132291,-0.0269 0.258382,-0.0951 0.217041,-0.12402 0.318326,-0.33073 0.101286,-0.20877 0.101286,-0.5147 z"
         style="font-style:normal;font-variant:normal;font-weight:bold;font-stretch:normal;font-size:4.23333311px;font-family:sans-serif;-inkscape-font-specification:'sans-serif, Bold';font-variant-ligatures:normal;font-variant-caps:normal;font-variant-numeric:normal;font-feature-settings:normal;text-align:start;writing-mode:lr-tb;text-anchor:start;stroke-width:0.26458332"
         id="path4602"
         inkscape:connector-curvature="0" />
      <path
         d="m 65.221385,166.706 q -0.206706,0.0806 -0.54777,0.16123 -0.341064,0.0786 -0.680062,0.0786 -0.785482,0 -1.229899,-0.42582 -0.444417,-0.42788 -0.444417,-1.18029 0,-0.71726 0.448551,-1.15548 0.448552,-0.44028 1.25057,-0.44028 0.303857,0 0.578776,0.0558 0.274918,0.0537 0.611849,0.21704 v 0.7214 h -0.08888 q -0.05788,-0.0434 -0.169498,-0.12196 -0.111621,-0.0806 -0.214974,-0.13642 -0.11989,-0.0661 -0.28112,-0.11369 -0.159164,-0.0475 -0.338998,-0.0475 -0.210839,0 -0.382405,0.062 -0.171566,0.062 -0.307992,0.19017 -0.130224,0.12402 -0.206705,0.31626 -0.07441,0.19017 -0.07441,0.44028 0,0.51056 0.270784,0.78135 0.270785,0.27078 0.799951,0.27078 0.04548,0 0.09922,-0.002 0.05581,-0.002 0.101286,-0.006 v -0.60359 h -0.613916 v -0.58084 h 1.420068 z"
         style="font-style:normal;font-variant:normal;font-weight:bold;font-stretch:normal;font-size:4.23333311px;font-family:sans-serif;-inkscape-font-specification:'sans-serif, Bold';font-variant-ligatures:normal;font-variant-caps:normal;font-variant-numeric:normal;font-feature-settings:normal;text-align:start;writing-mode:lr-tb;text-anchor:start;stroke-width:0.26458332"
         id="path4604"
         inkscape:connector-curvature="0" />
      <path
         d="m 67.656379,164.74643 q 0,-0.11576 -0.04754,-0.19844 -0.04754,-0.0827 -0.163298,-0.13022 -0.08061,-0.0331 -0.188102,-0.0393 -0.107487,-0.008 -0.250114,-0.008 h -0.287321 v 0.82889 h 0.243913 q 0.190169,0 0.318327,-0.0186 0.128157,-0.0186 0.214974,-0.0847 0.08268,-0.0641 0.119889,-0.14056 0.03927,-0.0785 0.03927,-0.20877 z m 1.238167,2.13527 h -0.96945 l -0.839225,-1.12861 h -0.365869 v 1.12861 h -0.789616 v -3.07785 h 1.331185 q 0.272852,0 0.469222,0.031 0.19637,0.031 0.367936,0.13436 0.173633,0.10335 0.274919,0.26871 0.103353,0.1633 0.103353,0.41135 0,0.34106 -0.159164,0.55604 -0.157096,0.21497 -0.450618,0.3576 z"
         style="font-style:normal;font-variant:normal;font-weight:bold;font-stretch:normal;font-size:4.23333311px;font-family:sans-serif;-inkscape-font-specification:'sans-serif, Bold';font-variant-ligatures:normal;font-variant-caps:normal;font-variant-numeric:normal;font-feature-settings:normal;text-align:start;writing-mode:lr-tb;text-anchor:start;stroke-width:0.26458332"
         id="path4606"
         inkscape:connector-curvature="0" />
      <path
         d="m 70.909927,166.8817 h -1.802474 v -0.5457 h 0.504362 v -1.98645 h -0.504362 v -0.5457 h 1.802474 v 0.5457 h -0.504362 v 1.98645 h 0.504362 z"
         style="font-style:normal;font-variant:normal;font-weight:bold;font-stretch:normal;font-size:4.23333311px;font-family:sans-serif;-inkscape-font-specification:'sans-serif, Bold';font-variant-ligatures:normal;font-variant-caps:normal;font-variant-numeric:normal;font-feature-settings:normal;text-align:start;writing-mode:lr-tb;text-anchor:start;stroke-width:0.26458332"
         id="path4608"
         inkscape:connector-curvature="0" />
      <path
         d="m 74.469399,165.34588 q 0,0.42994 -0.196371,0.77101 -0.19637,0.33899 -0.496094,0.5209 -0.225309,0.13642 -0.494026,0.19017 -0.268718,0.0537 -0.636654,0.0537 h -1.085205 v -3.07785 h 1.116211 q 0.376204,0 0.649056,0.0641 0.272852,0.062 0.458887,0.17777 0.318326,0.1943 0.500227,0.52503 0.183969,0.32866 0.183969,0.77515 z m -0.820622,-0.006 q 0,-0.30385 -0.111621,-0.51883 -0.109554,-0.21704 -0.349333,-0.33899 -0.121956,-0.06 -0.250114,-0.0806 -0.12609,-0.0227 -0.382405,-0.0227 h -0.200505 v 1.9265 h 0.200505 q 0.283186,0 0.415478,-0.0248 0.132292,-0.0269 0.258382,-0.0951 0.217041,-0.12402 0.318327,-0.33073 0.101286,-0.20877 0.101286,-0.5147 z"
         style="font-style:normal;font-variant:normal;font-weight:bold;font-stretch:normal;font-size:4.23333311px;font-family:sans-serif;-inkscape-font-specification:'sans-serif, Bold';font-variant-ligatures:normal;font-variant-caps:normal;font-variant-numeric:normal;font-feature-settings:normal;text-align:start;writing-mode:lr-tb;text-anchor:start;stroke-width:0.26458332"
         id="path4610"
         inkscape:connector-curvature="0" />
      <path
         d="m 78.985919,165.91432 q 0,0.45475 -0.38654,0.74 -0.384473,0.28319 -1.045931,0.28319 -0.382405,0 -0.667659,-0.0661 -0.283187,-0.0682 -0.531234,-0.17156 v -0.73794 h 0.08682 q 0.24598,0.19637 0.549838,0.30179 0.305924,0.10542 0.587044,0.10542 0.07235,0 0.190169,-0.0124 0.117822,-0.0124 0.192236,-0.0413 0.09095,-0.0372 0.148829,-0.093 0.05994,-0.0558 0.05994,-0.16537 0,-0.10128 -0.08682,-0.17363 -0.08475,-0.0744 -0.250114,-0.11369 -0.173633,-0.0413 -0.367936,-0.0765 -0.192237,-0.0372 -0.361735,-0.093 -0.388607,-0.12609 -0.560173,-0.34106 -0.169498,-0.21704 -0.169498,-0.53744 0,-0.42994 0.384472,-0.70073 0.38654,-0.27285 0.992188,-0.27285 0.303857,0 0.599446,0.0599 0.297656,0.0579 0.514697,0.14677 v 0.709 h -0.08475 q -0.186035,-0.14883 -0.45682,-0.24805 -0.268717,-0.10129 -0.549837,-0.10129 -0.09922,0 -0.198437,0.0145 -0.09715,0.0124 -0.188102,0.0496 -0.08062,0.031 -0.138493,0.0951 -0.05788,0.062 -0.05788,0.14262 0,0.12196 0.09302,0.18811 0.09302,0.0641 0.351399,0.11782 0.169499,0.0351 0.324528,0.0682 0.157097,0.0331 0.336931,0.0909 0.353466,0.11576 0.520898,0.31626 0.169499,0.19844 0.169499,0.51677 z"
         style="font-style:normal;font-variant:normal;font-weight:bold;font-stretch:normal;font-size:4.23333311px;font-family:sans-serif;-inkscape-font-specification:'sans-serif, Bold';font-variant-ligatures:normal;font-variant-caps:normal;font-variant-numeric:normal;font-feature-settings:normal;text-align:start;writing-mode:lr-tb;text-anchor:start;stroke-width:0.26458332"
         id="path4612"
         inkscape:connector-curvature="0" />
      <path
         d="m 81.757843,166.8817 h -2.22622 v -3.07785 h 2.22622 v 0.59531 h -1.436605 v 0.53124 h 1.333252 v 0.59531 h -1.333252 v 0.76068 h 1.436605 z"
         style="font-style:normal;font-variant:normal;font-weight:bold;font-stretch:normal;font-size:4.23333311px;font-family:sans-serif;-inkscape-font-specification:'sans-serif, Bold';font-variant-ligatures:normal;font-variant-caps:normal;font-variant-numeric:normal;font-feature-settings:normal;text-align:start;writing-mode:lr-tb;text-anchor:start;stroke-width:0.26458332"
         id="path4614"
         inkscape:connector-curvature="0" />
      <path
         d="m 84.366468,166.12309 q 0.115755,-0.14056 0.171566,-0.33073 0.05581,-0.19224 0.05581,-0.45062 0,-0.27698 -0.06408,-0.47129 -0.06408,-0.1943 -0.167432,-0.31419 -0.10542,-0.12402 -0.243913,-0.17983 -0.136425,-0.0558 -0.285254,-0.0558 -0.150895,0 -0.285253,0.0538 -0.132292,0.0537 -0.243913,0.17777 -0.103353,0.11575 -0.169499,0.32039 -0.06408,0.20257 -0.06408,0.47129 0,0.27492 0.06201,0.46922 0.06408,0.19224 0.167432,0.31419 0.103353,0.12196 0.241845,0.17984 0.138493,0.0579 0.291455,0.0579 0.152963,0 0.291455,-0.0579 0.138493,-0.06 0.241846,-0.18397 z m 0.08475,0.7214 q 0.0083,0.20464 0.111621,0.29352 0.103352,0.0889 0.353466,0.0889 0.08475,0 0.200505,-0.0289 0.115755,-0.0289 0.16123,-0.0517 h 0.07855 v 0.54571 q -0.115756,0.0269 -0.252181,0.0475 -0.134359,0.0207 -0.413412,0.0207 -0.24598,0 -0.429948,-0.062 -0.181901,-0.06 -0.303857,-0.17157 -0.119889,-0.10955 -0.179834,-0.25838 -0.05994,-0.14883 -0.07028,-0.33073 -0.690397,-0.0393 -1.076937,-0.46095 -0.384472,-0.42375 -0.384472,-1.13275 0,-0.74208 0.421679,-1.17202 0.42168,-0.43202 1.163753,-0.43202 0.740007,0 1.163754,0.43202 0.423746,0.42994 0.423746,1.17202 0,0.54777 -0.248047,0.94671 -0.248046,0.39688 -0.719335,0.55397 z"
         style="font-style:normal;font-variant:normal;font-weight:bold;font-stretch:normal;font-size:4.23333311px;font-family:sans-serif;-inkscape-font-specification:'sans-serif, Bold';font-variant-ligatures:normal;font-variant-caps:normal;font-variant-numeric:normal;font-feature-settings:normal;text-align:start;writing-mode:lr-tb;text-anchor:start;stroke-width:0.26458332"
         id="path4616"
         inkscape:connector-curvature="0" />
    </g>
    <g
       aria-label="by KarateSnoopy"
       style="font-style:normal;font-weight:normal;font-size:2.11666656px;line-height:1.25;font-family:sans-serif;letter-spacing:0px;word-spacing:0px;fill:#000000;fill-opacity:1;stroke:none;stroke-width:0.26458332"
       id="text4621"
       transform="translate(-0.94494048,-4.5357143)">
      <path
         d="m 95.313897,259.84481 q 0,0.14469 -0.04134,0.26045 -0.04031,0.11575 -0.109554,0.1943 -0.07338,0.0817 -0.16123,0.12299 -0.08785,0.0403 -0.19327,0.0403 -0.09819,0 -0.171566,-0.0238 -0.07338,-0.0227 -0.144694,-0.062 l -0.0124,0.0537 h -0.181901 v -1.60817 h 0.194303 v 0.57464 q 0.08165,-0.0672 0.173633,-0.10956 0.09198,-0.0434 0.206706,-0.0434 0.204639,0 0.322461,0.15709 0.118856,0.1571 0.118856,0.44339 z m -0.200505,0.005 q 0,-0.2067 -0.06821,-0.31316 -0.06821,-0.10748 -0.220141,-0.10748 -0.08475,0 -0.171566,0.0372 -0.08682,0.0362 -0.161231,0.0941 v 0.66145 q 0.08268,0.0372 0.141594,0.0517 0.05994,0.0145 0.135392,0.0145 0.161231,0 0.252181,-0.10542 0.09198,-0.10645 0.09198,-0.3328 z"
         style="stroke-width:0.26458332"
         id="path4623"
         inkscape:connector-curvature="0" />
      <path
         d="m 96.610975,259.27637 -0.673861,1.58026 h -0.207739 l 0.214974,-0.48162 -0.45992,-1.09864 h 0.21084 l 0.3545,0.85576 0.357601,-0.85576 z"
         style="stroke-width:0.26458332"
         id="path4625"
         inkscape:connector-curvature="0" />
      <path
         d="m 98.862,260.43082 h -0.265616 l -0.608749,-0.68523 -0.152962,0.16329 v 0.52194 h -0.204639 v -1.53893 h 0.204639 v 0.80305 l 0.747241,-0.80305 h 0.248047 l -0.687297,0.72347 z"
         style="stroke-width:0.26458332"
         id="path4627"
         inkscape:connector-curvature="0" />
      <path
         d="m 99.912065,260.43082 h -0.19327 v -0.12299 q -0.02584,0.0176 -0.07028,0.0496 -0.04341,0.031 -0.08475,0.0496 -0.04858,0.0238 -0.111621,0.0393 -0.06305,0.0165 -0.147795,0.0165 -0.156062,0 -0.264583,-0.10336 -0.10852,-0.10335 -0.10852,-0.26355 0,-0.13125 0.05581,-0.21187 0.05684,-0.0816 0.161231,-0.12816 0.105419,-0.0465 0.253214,-0.063 0.147795,-0.0165 0.317293,-0.0248 v -0.03 q 0,-0.0661 -0.02377,-0.10955 -0.02274,-0.0434 -0.06615,-0.0682 -0.04134,-0.0238 -0.09922,-0.032 -0.05788,-0.008 -0.120923,-0.008 -0.07648,0 -0.170532,0.0207 -0.09405,0.0196 -0.194304,0.0579 h -0.01034 v -0.1974 q 0.05684,-0.0155 0.164331,-0.0341 0.107487,-0.0186 0.211873,-0.0186 0.121957,0 0.211874,0.0207 0.09095,0.0196 0.157096,0.0682 0.06511,0.0476 0.09922,0.12299 0.03411,0.0754 0.03411,0.18707 z m -0.19327,-0.28422 v -0.32143 q -0.08888,0.005 -0.209806,0.0155 -0.119889,0.0103 -0.190169,0.03 -0.08372,0.0238 -0.135392,0.0744 -0.05168,0.0496 -0.05168,0.13746 0,0.0992 0.05994,0.14986 0.05994,0.0496 0.182934,0.0496 0.10232,0 0.187069,-0.0393 0.08475,-0.0403 0.157096,-0.0961 z"
         style="stroke-width:0.26458332"
         id="path4629"
         inkscape:connector-curvature="0" />
      <path
         d="m 101.00864,259.48824 h -0.0103 q -0.0434,-0.0103 -0.0847,-0.0145 -0.0403,-0.005 -0.0961,-0.005 -0.0899,0 -0.17364,0.0403 -0.0837,0.0393 -0.16123,0.10232 v 0.81959 h -0.1943 v -1.15445 h 0.1943 v 0.17053 q 0.11576,-0.093 0.20361,-0.13126 0.0889,-0.0393 0.18087,-0.0393 0.0506,0 0.0734,0.003 0.0227,0.002 0.0682,0.009 z"
         style="stroke-width:0.26458332"
         id="path4631"
         inkscape:connector-curvature="0" />
      <path
         d="m 102.05354,260.43082 h -0.19327 v -0.12299 q -0.0258,0.0176 -0.0703,0.0496 -0.0434,0.031 -0.0847,0.0496 -0.0486,0.0238 -0.11162,0.0393 -0.0631,0.0165 -0.1478,0.0165 -0.15606,0 -0.26458,-0.10336 -0.10852,-0.10335 -0.10852,-0.26355 0,-0.13125 0.0558,-0.21187 0.0568,-0.0816 0.16123,-0.12816 0.10542,-0.0465 0.25321,-0.063 0.1478,-0.0165 0.3173,-0.0248 v -0.03 q 0,-0.0661 -0.0238,-0.10955 -0.0227,-0.0434 -0.0662,-0.0682 -0.0413,-0.0238 -0.0992,-0.032 -0.0579,-0.008 -0.12092,-0.008 -0.0765,0 -0.17053,0.0207 -0.0941,0.0196 -0.19431,0.0579 h -0.0103 v -0.1974 q 0.0568,-0.0155 0.16433,-0.0341 0.10749,-0.0186 0.21187,-0.0186 0.12196,0 0.21188,0.0207 0.0909,0.0196 0.15709,0.0682 0.0651,0.0476 0.0992,0.12299 0.0341,0.0754 0.0341,0.18707 z m -0.19327,-0.28422 v -0.32143 q -0.0889,0.005 -0.20981,0.0155 -0.11989,0.0103 -0.19017,0.03 -0.0837,0.0238 -0.13539,0.0744 -0.0517,0.0496 -0.0517,0.13746 0,0.0992 0.06,0.14986 0.0599,0.0496 0.18293,0.0496 0.10232,0 0.18707,-0.0393 0.0847,-0.0403 0.1571,-0.0961 z"
         style="stroke-width:0.26458332"
         id="path4633"
         inkscape:connector-curvature="0" />
      <path
         d="m 103.02919,260.42048 q -0.0548,0.0145 -0.11989,0.0238 -0.0641,0.009 -0.11472,0.009 -0.17674,0 -0.26872,-0.0951 -0.092,-0.0951 -0.092,-0.30489 v -0.61392 h -0.13125 v -0.16329 h 0.13125 v -0.33177 h 0.19431 v 0.33177 h 0.40101 v 0.16329 h -0.40101 v 0.52607 q 0,0.0909 0.004,0.14263 0.004,0.0506 0.0289,0.0951 0.0227,0.0413 0.062,0.061 0.0403,0.0186 0.12196,0.0186 0.0475,0 0.0992,-0.0134 0.0517,-0.0145 0.0744,-0.0238 h 0.0103 z"
         style="stroke-width:0.26458332"
         id="path4635"
         inkscape:connector-curvature="0" />
      <path
         d="m 104.23118,259.87374 h -0.85059 q 0,0.10646 0.032,0.18604 0.032,0.0786 0.0879,0.12919 0.0537,0.0496 0.12712,0.0744 0.0744,0.0248 0.1633,0.0248 0.11782,0 0.23668,-0.0465 0.11989,-0.0475 0.17053,-0.093 h 0.0103 v 0.21188 q -0.0982,0.0413 -0.2005,0.0692 -0.10232,0.0279 -0.21497,0.0279 -0.28733,0 -0.44856,-0.15503 -0.16123,-0.15606 -0.16123,-0.44235 0,-0.28319 0.154,-0.44959 0.15503,-0.16639 0.40721,-0.16639 0.23358,0 0.35967,0.13642 0.12712,0.13643 0.12712,0.38757 z m -0.18913,-0.14882 q -0.001,-0.15297 -0.0775,-0.23668 -0.0754,-0.0837 -0.23048,-0.0837 -0.15606,0 -0.24908,0.092 -0.092,0.092 -0.10438,0.22841 z"
         style="stroke-width:0.26458332"
         id="path4637"
         inkscape:connector-curvature="0" />
      <path
         d="m 105.65952,259.99157 q 0,0.0899 -0.0424,0.17776 -0.0413,0.0879 -0.11679,0.14883 -0.0827,0.0662 -0.19327,0.10335 -0.10955,0.0372 -0.26458,0.0372 -0.1664,0 -0.29972,-0.031 -0.13229,-0.031 -0.26975,-0.092 v -0.25631 h 0.0145 q 0.11678,0.0971 0.26975,0.14986 0.15296,0.0527 0.28732,0.0527 0.19017,0 0.29559,-0.0713 0.10645,-0.0713 0.10645,-0.19017 0,-0.10232 -0.0506,-0.1509 -0.0496,-0.0486 -0.15193,-0.0755 -0.0775,-0.0207 -0.16847,-0.0341 -0.0899,-0.0134 -0.1912,-0.0341 -0.20464,-0.0434 -0.30386,-0.14779 -0.0982,-0.10542 -0.0982,-0.27389 0,-0.19327 0.1633,-0.31626 0.16329,-0.12402 0.41444,-0.12402 0.16226,0 0.29766,0.031 0.13539,0.031 0.23978,0.0765 v 0.24185 h -0.0145 q -0.0879,-0.0744 -0.23151,-0.12299 -0.14263,-0.0496 -0.29249,-0.0496 -0.16433,0 -0.26459,0.0682 -0.0992,0.0682 -0.0992,0.1757 0,0.0961 0.0496,0.1509 0.0496,0.0548 0.17467,0.0837 0.0661,0.0145 0.1881,0.0351 0.12196,0.0207 0.20671,0.0424 0.17156,0.0455 0.25838,0.13746 0.0868,0.092 0.0868,0.25735 z"
         style="stroke-width:0.26458332"
         id="path4639"
         inkscape:connector-curvature="0" />
      <path
         d="m 106.93799,260.43082 h -0.1943 v -0.65733 q 0,-0.0796 -0.009,-0.14883 -0.009,-0.0703 -0.0341,-0.10955 -0.0258,-0.0434 -0.0744,-0.0641 -0.0486,-0.0217 -0.12609,-0.0217 -0.0796,0 -0.1664,0.0393 -0.0868,0.0393 -0.1664,0.10025 v 0.86197 h -0.1943 v -1.15445 h 0.1943 v 0.12815 q 0.091,-0.0754 0.1881,-0.11782 0.0971,-0.0424 0.19947,-0.0424 0.18707,0 0.28526,0.11265 0.0982,0.11266 0.0982,0.32453 z"
         style="stroke-width:0.26458332"
         id="path4641"
         inkscape:connector-curvature="0" />
      <path
         d="m 108.29605,259.85411 q 0,0.28215 -0.14469,0.44545 -0.1447,0.1633 -0.38758,0.1633 -0.24494,0 -0.38964,-0.1633 -0.14366,-0.1633 -0.14366,-0.44545 0,-0.28216 0.14366,-0.44545 0.1447,-0.16433 0.38964,-0.16433 0.24288,0 0.38758,0.16433 0.14469,0.16329 0.14469,0.44545 z m -0.2005,0 q 0,-0.22428 -0.0879,-0.3328 -0.0879,-0.10955 -0.24392,-0.10955 -0.15813,0 -0.24598,0.10955 -0.0868,0.10852 -0.0868,0.3328 0,0.21704 0.0879,0.32969 0.0879,0.11162 0.24494,0.11162 0.15503,0 0.24288,-0.11058 0.0889,-0.11162 0.0889,-0.33073 z"
         style="stroke-width:0.26458332"
         id="path4643"
         inkscape:connector-curvature="0" />
      <path
         d="m 109.58176,259.85411 q 0,0.28215 -0.14469,0.44545 -0.1447,0.1633 -0.38758,0.1633 -0.24494,0 -0.38964,-0.1633 -0.14366,-0.1633 -0.14366,-0.44545 0,-0.28216 0.14366,-0.44545 0.1447,-0.16433 0.38964,-0.16433 0.24288,0 0.38758,0.16433 0.14469,0.16329 0.14469,0.44545 z m -0.20051,0 q 0,-0.22428 -0.0878,-0.3328 -0.0879,-0.10955 -0.24391,-0.10955 -0.15813,0 -0.24598,0.10955 -0.0868,0.10852 -0.0868,0.3328 0,0.21704 0.0879,0.32969 0.0878,0.11162 0.24494,0.11162 0.15503,0 0.24288,-0.11058 0.0889,-0.11162 0.0889,-0.33073 z"
         style="stroke-width:0.26458332"
         id="path4645"
         inkscape:connector-curvature="0" />
      <path
         d="m 110.89951,259.83964 q 0,0.14056 -0.0403,0.25735 -0.0403,0.11575 -0.11369,0.19637 -0.0682,0.0765 -0.16123,0.11885 -0.092,0.0413 -0.19534,0.0413 -0.0899,0 -0.16329,-0.0196 -0.0724,-0.0196 -0.1478,-0.061 v 0.48369 h -0.1943 v -1.58026 h 0.1943 v 0.12092 q 0.0775,-0.0651 0.17364,-0.10852 0.0971,-0.0444 0.2067,-0.0444 0.20877,0 0.32453,0.15813 0.11679,0.15709 0.11679,0.43718 z m -0.20051,0.005 q 0,-0.20878 -0.0713,-0.31213 -0.0713,-0.10335 -0.21911,-0.10335 -0.0837,0 -0.16846,0.0362 -0.0847,0.0362 -0.16227,0.0951 v 0.65422 q 0.0827,0.0372 0.1416,0.0506 0.0599,0.0134 0.13539,0.0134 0.16226,0 0.25321,-0.10956 0.0909,-0.10955 0.0909,-0.32452 z"
         style="stroke-width:0.26458332"
         id="path4647"
         inkscape:connector-curvature="0" />
      <path
         d="m 112.19659,259.27637 -0.67386,1.58026 h -0.20774 l 0.21497,-0.48162 -0.45992,-1.09864 h 0.21084 l 0.3545,0.85576 0.3576,-0.85576 z"
         style="stroke-width:0.26458332"
         id="path4649"
         inkscape:connector-curvature="0" />
    </g>
  </g>
</svg>
