<?xml version="1.0" encoding="UTF-8" standalone="no"?>
<!-- Created with Inkscape (http://www.inkscape.org/) -->

<svg
   xmlns:dc="http://purl.org/dc/elements/1.1/"
   xmlns:cc="http://creativecommons.org/ns#"
   xmlns:rdf="http://www.w3.org/1999/02/22-rdf-syntax-ns#"
   xmlns:svg="http://www.w3.org/2000/svg"
   xmlns="http://www.w3.org/2000/svg"
   xmlns:sodipodi="http://sodipodi.sourceforge.net/DTD/sodipodi-0.dtd"
   xmlns:inkscape="http://www.inkscape.org/namespaces/inkscape"
   width="330.49908"
   height="380"
   viewBox="0 0 87.444549 100.54166"
   version="1.1"
   id="svg12553"
   inkscape:version="0.92.2 (5c3e80d, 2017-08-06)"
   sodipodi:docname="drawing.svg">
  <defs
     id="defs12547">
    <pattern
       patternUnits="userSpaceOnUse"
       width="65.478515"
       height="11.396484"
       patternTransform="matrix(0.26458333,0,0,0.26458333,59.124032,165.74693)"
       id="pattern4440">
      <text
         id="text4384-1-4-3"
         y="8.90625"
         x="-0.60351562"
         style="font-style:normal;font-weight:normal;font-size:7.99999952px;line-height:1.25;font-family:sans-serif;letter-spacing:0px;word-spacing:0px;fill:#000000;fill-opacity:1;stroke:none;stroke-width:0.99999994"
         xml:space="preserve"><tspan
           style="font-style:normal;font-variant:normal;font-weight:bold;font-stretch:normal;font-size:12px;font-family:sans-serif;-inkscape-font-specification:'sans-serif Bold';stroke-width:0.99999994"
           y="8.90625"
           x="-0.60351562"
           id="tspan4382-2-9-3"
           sodipodi:role="line">GRID SEQ</tspan></text>
    </pattern>
  </defs>
  <sodipodi:namedview
     id="base"
     pagecolor="#ffffff"
     bordercolor="#666666"
     borderopacity="1.0"
     inkscape:pageopacity="0.0"
     inkscape:pageshadow="2"
     inkscape:zoom="2.8"
     inkscape:cx="157.38784"
     inkscape:cy="223.43676"
     inkscape:document-units="mm"
     inkscape:current-layer="layer1"
     showgrid="false"
     fit-margin-top="0"
     fit-margin-left="0"
     fit-margin-right="0"
     fit-margin-bottom="0"
     units="px"
     inkscape:window-width="1920"
     inkscape:window-height="1080"
     inkscape:window-x="2489"
     inkscape:window-y="122"
     inkscape:window-maximized="1">
    <inkscape:grid
       type="xygrid"
       id="grid12870"
       originx="-20.372917"
       originy="84.666661" />
  </sodipodi:namedview>
  <metadata
     id="metadata12550">
    <rdf:RDF>
      <cc:Work
         rdf:about="">
        <dc:format>image/svg+xml</dc:format>
        <dc:type
           rdf:resource="http://purl.org/dc/dcmitype/StillImage" />
        <dc:title />
      </cc:Work>
    </rdf:RDF>
  </metadata>
  <g
     inkscape:label="Layer 1"
     inkscape:groupmode="layer"
     id="layer1"
     transform="translate(-26.543497,-161.30655)">
    <path
       style="fill:#e6e6e6;fill-opacity:1;fill-rule:nonzero;stroke:none;stroke-width:0.27602378"
       d="m 26.616839,161.37987 h 87.297891 v 100.3961 H 26.616839 Z m 0,0"
       id="path33453"
       inkscape:connector-curvature="0" />
    <path
       style="fill:none;stroke:#000000;stroke-width:0.18383184;stroke-linecap:round;stroke-linejoin:round;stroke-miterlimit:10;stroke-opacity:1"
       d="M 31.535655,196.58908 H 108.99592"
       id="path35483"
       inkscape:connector-curvature="0" />
    <path
       inkscape:connector-curvature="0"
       id="path7375"
       d="m 31.482924,174.1527 c 0.250164,0 0.418359,-0.0776 0.564991,-0.20701 0.0217,-0.0216 0.04313,-0.0561 0.04313,-0.0992 0,-0.0647 -0.06038,-0.12508 -0.129381,-0.12508 -0.0345,0 -0.06038,0.0129 -0.08194,0.0302 -0.112131,0.0949 -0.224261,0.15095 -0.383858,0.15095 -0.297577,0 -0.513212,-0.24583 -0.513212,-0.54773 v -0.004 c 0,-0.3019 0.215635,-0.54773 0.513212,-0.54773 0.146659,0 0.258789,0.0561 0.366607,0.14232 0.0172,0.0129 0.04313,0.0259 0.08194,0.0259 0.07332,0 0.133694,-0.0604 0.133694,-0.1337 0,-0.0474 -0.0217,-0.0863 -0.05175,-0.10782 -0.133694,-0.10351 -0.293264,-0.17683 -0.53049,-0.17683 -0.470085,0 -0.797877,0.36228 -0.797877,0.80219 v 0.004 c 0,0.44423 0.336417,0.79357 0.784939,0.79357 z m 0,0"
       style="fill:#000000;fill-opacity:1;stroke:none;stroke-width:0.27602378" />
    <path
       inkscape:connector-curvature="0"
       id="path7371"
       d="m 32.449659,173.98882 c 0,0.0776 0.06038,0.13801 0.138006,0.13801 h 0.832406 c 0.069,0 0.125068,-0.0561 0.125068,-0.12508 0,-0.069 -0.05607,-0.12076 -0.125068,-0.12076 h -0.698685 v -1.17741 c 0,-0.0733 -0.06038,-0.1337 -0.133721,-0.1337 -0.07763,0 -0.138006,0.0604 -0.138006,0.1337 z m 0,0"
       style="fill:#000000;fill-opacity:1;stroke:none;stroke-width:0.27602378" />
    <path
       inkscape:connector-curvature="0"
       id="path7367"
       d="m 34.520658,174.1527 c 0.474425,0 0.810816,-0.36228 0.810816,-0.79788 v -0.004 c 0,-0.4356 -0.332079,-0.79788 -0.806503,-0.79788 -0.474398,0 -0.810816,0.3666 -0.810816,0.8022 v 0.004 c 0,0.4356 0.332105,0.79357 0.806503,0.79356 z m 0.0042,-0.25014 c -0.306202,0 -0.52615,-0.25015 -0.52615,-0.54774 v -0.004 c 0,-0.3019 0.215635,-0.54773 0.521838,-0.54773 0.306229,0 0.526177,0.25015 0.526177,0.55205 v 0.004 c 0,0.29758 -0.215636,0.54342 -0.521865,0.54342 z m 0,0"
       style="fill:#000000;fill-opacity:1;stroke:none;stroke-width:0.27602378" />
    <path
       inkscape:connector-curvature="0"
       id="path7363"
       d="m 36.418911,174.1527 c 0.250164,0 0.418359,-0.0776 0.564992,-0.20701 0.0217,-0.0216 0.04313,-0.0561 0.04313,-0.0992 0,-0.0647 -0.06038,-0.12508 -0.129382,-0.12508 -0.0345,0 -0.06038,0.0129 -0.08194,0.0302 -0.112131,0.0949 -0.224261,0.15095 -0.383858,0.15095 -0.297576,0 -0.513212,-0.24583 -0.513212,-0.54773 v -0.004 c 0,-0.3019 0.215636,-0.54773 0.513212,-0.54773 0.146659,0 0.258789,0.0561 0.366607,0.14232 0.0172,0.0129 0.04313,0.0259 0.08194,0.0259 0.07332,0 0.133693,-0.0604 0.133693,-0.1337 0,-0.0474 -0.0217,-0.0863 -0.05175,-0.10782 -0.133694,-0.10351 -0.293264,-0.17683 -0.53049,-0.17683 -0.470085,0 -0.797877,0.36228 -0.797877,0.80219 v 0.004 c 0,0.44423 0.336418,0.79357 0.784939,0.79357 z m 0,0"
       style="fill:#000000;fill-opacity:1;stroke:none;stroke-width:0.27602378" />
    <path
       inkscape:connector-curvature="0"
       id="path7359"
       d="m 37.385593,174.00175 c 0,0.0776 0.06038,0.13802 0.138007,0.13802 0.07334,0 0.13372,-0.0604 0.13372,-0.13802 v -0.31915 l 0.250137,-0.24152 0.500301,0.63399 c 0.02593,0.0345 0.06038,0.0647 0.11213,0.0647 0.07763,0 0.138007,-0.0604 0.138007,-0.1337 0,-0.0431 -0.0172,-0.069 -0.03881,-0.0992 l -0.521864,-0.64693 0.48305,-0.46147 c 0.03019,-0.0302 0.04744,-0.0604 0.04744,-0.10351 0,-0.0647 -0.04744,-0.12508 -0.125069,-0.12508 -0.04744,0 -0.08194,0.0172 -0.11213,0.0517 l -0.733187,0.7375 v -0.65555 c 0,-0.0733 -0.06038,-0.1337 -0.13372,-0.1337 -0.07763,0 -0.138007,0.0604 -0.138007,0.1337 z m 0,0"
       style="fill:#000000;fill-opacity:1;stroke:none;stroke-width:0.27602378" />
    <path
       inkscape:connector-curvature="0"
       id="path7355"
       d="m 62.229492,174.14839 c 0.323479,0 0.552053,-0.17251 0.552053,-0.46148 v -0.004 c 0,-0.25445 -0.168196,-0.3709 -0.495988,-0.45285 -0.297577,-0.069 -0.370893,-0.12507 -0.370893,-0.24152 v -0.004 c 0,-0.10351 0.09488,-0.18545 0.25445,-0.18545 0.120756,0 0.232886,0.0431 0.353642,0.11645 0.0217,0.0129 0.04315,0.0216 0.07334,0.0216 0.069,0 0.125069,-0.0561 0.125069,-0.12508 0,-0.0517 -0.02593,-0.0906 -0.06038,-0.10782 -0.138033,-0.0949 -0.293291,-0.14664 -0.487363,-0.14664 -0.306202,0 -0.530489,0.18546 -0.530489,0.44854 v 0.004 c 0,0.28465 0.185446,0.38385 0.517551,0.46148 0.284639,0.069 0.34933,0.12939 0.34933,0.23721 v 0.004 c 0,0.11645 -0.107818,0.19408 -0.276014,0.19408 -0.168195,0 -0.306202,-0.0561 -0.431297,-0.15958 -0.0172,-0.0129 -0.04313,-0.0216 -0.08194,-0.0216 -0.069,0 -0.125069,0.0561 -0.125069,0.12508 0,0.0431 0.0217,0.0819 0.05175,0.1035 0.172508,0.12939 0.370919,0.19408 0.582242,0.19408 z m 0,0"
       style="fill:#000000;fill-opacity:1;stroke:none;stroke-width:0.27602378" />
    <path
       inkscape:connector-curvature="0"
       id="path7351"
       d="m 63.518621,174.00175 c 0,0.0776 0.06038,0.13802 0.138007,0.13802 0.07332,0 0.138006,-0.0604 0.138006,-0.13802 v -1.16878 h 0.375232 c 0.069,0 0.125069,-0.0561 0.125069,-0.12508 0,-0.069 -0.05607,-0.12507 -0.125069,-0.12507 h -1.026477 c -0.069,0 -0.125069,0.0561 -0.125069,0.12507 0,0.069 0.05607,0.12508 0.125069,0.12508 h 0.375232 z m 0,0"
       style="fill:#000000;fill-opacity:1;stroke:none;stroke-width:0.27602378" />
    <path
       inkscape:connector-curvature="0"
       id="path7347"
       d="m 64.743324,174.12683 h 0.910035 c 0.06469,0 0.120756,-0.0517 0.120756,-0.12076 0,-0.069 -0.05607,-0.12076 -0.120756,-0.12076 h -0.776314 v -0.41835 h 0.664183 c 0.069,0 0.120756,-0.0517 0.120756,-0.11645 0,-0.069 -0.05175,-0.12507 -0.120756,-0.12507 h -0.664183 v -0.4011 h 0.763376 c 0.069,0 0.120755,-0.0517 0.120755,-0.12076 0,-0.069 -0.05175,-0.12076 -0.120755,-0.12076 h -0.897097 c -0.07763,0 -0.138006,0.0561 -0.138006,0.1337 v 1.2723 c 0,0.0776 0.06038,0.13801 0.138006,0.13801 z m 0,0"
       style="fill:#000000;fill-opacity:1;stroke:none;stroke-width:0.27602378" />
    <path
       inkscape:connector-curvature="0"
       id="path7343"
       d="m 66.130508,174.00175 c 0,0.0776 0.06038,0.13802 0.138007,0.13802 0.07334,0 0.13372,-0.0604 0.13372,-0.13802 v -0.3709 h 0.306203 c 0.34073,0 0.621056,-0.18114 0.621056,-0.53049 v -0.004 c 0,-0.31052 -0.228573,-0.51323 -0.590867,-0.51323 h -0.470112 c -0.07763,0 -0.138007,0.0561 -0.138007,0.1337 z m 0.271727,-0.61674 v -0.55636 h 0.314828 c 0.202697,0 0.336418,0.0949 0.336418,0.27603 v 0.004 c 0,0.15957 -0.129408,0.27602 -0.336418,0.27602 z m 0,0"
       style="fill:#000000;fill-opacity:1;stroke:none;stroke-width:0.27602378" />
    <path
       inkscape:connector-curvature="0"
       id="path7339"
       d="m 68.202011,174.14839 c 0.323479,0 0.552053,-0.17251 0.552053,-0.46148 v -0.004 c 0,-0.25445 -0.168196,-0.3709 -0.495988,-0.45285 -0.297577,-0.069 -0.370893,-0.12507 -0.370893,-0.24152 v -0.004 c 0,-0.10351 0.09488,-0.18545 0.25445,-0.18545 0.120756,0 0.232886,0.0431 0.353642,0.11645 0.0217,0.0129 0.04315,0.0216 0.07334,0.0216 0.069,0 0.125069,-0.0561 0.125069,-0.12508 0,-0.0517 -0.02593,-0.0906 -0.06038,-0.10782 -0.138033,-0.0949 -0.293291,-0.14664 -0.487363,-0.14664 -0.306202,0 -0.530489,0.18546 -0.530489,0.44854 v 0.004 c 0,0.28465 0.185446,0.38385 0.517551,0.46148 0.284639,0.069 0.34933,0.12939 0.34933,0.23721 v 0.004 c 0,0.11645 -0.107818,0.19408 -0.276014,0.19408 -0.168195,0 -0.306202,-0.0561 -0.431297,-0.15958 -0.0172,-0.0129 -0.04313,-0.0216 -0.08194,-0.0216 -0.069,0 -0.125069,0.0561 -0.125069,0.12508 0,0.0431 0.0217,0.0819 0.05175,0.1035 0.172508,0.12939 0.370919,0.19408 0.582242,0.19408 z m 0,0"
       style="fill:#000000;fill-opacity:1;stroke:none;stroke-width:0.27602378" />
    <path
       inkscape:connector-curvature="0"
       id="path7335"
       d="m 42.895329,175.35142 c 0,0.0604 0.05175,0.10782 0.112131,0.10782 0.06038,0 0.112156,-0.0474 0.112156,-0.10782 v -0.34072 h 0.276014 l 0.306202,0.39247 c 0.02593,0.0345 0.05607,0.0561 0.107844,0.0561 0.05175,0 0.103505,-0.0388 0.103505,-0.10351 0,-0.0345 -0.01296,-0.0561 -0.0345,-0.0819 l -0.241539,-0.3019 c 0.168223,-0.0561 0.284666,-0.17683 0.284666,-0.37522 v -0.004 c 0,-0.11213 -0.0345,-0.2027 -0.103505,-0.27171 -0.07766,-0.0776 -0.202724,-0.12507 -0.362294,-0.12507 h -0.448548 c -0.06038,0 -0.112131,0.0474 -0.112131,0.11213 z m 0.224287,-0.5348 v -0.42266 h 0.319141 c 0.163883,0 0.258762,0.0733 0.258762,0.21133 0,0.12939 -0.09919,0.21133 -0.258762,0.21133 z m 0,0"
       style="fill:#000000;fill-opacity:1;stroke:none;stroke-width:0.27602378" />
    <path
       inkscape:connector-curvature="0"
       id="path7331"
       d="m 44.769241,175.47218 c 0.327765,0 0.539115,-0.18977 0.539115,-0.56499 v -0.61243 c 0,-0.0604 -0.04744,-0.10782 -0.107818,-0.10782 -0.06472,0 -0.112157,0.0474 -0.112157,0.10782 v 0.62106 c 0,0.23289 -0.120756,0.34934 -0.314828,0.34934 -0.198384,0 -0.31914,-0.12507 -0.31914,-0.35797 v -0.61243 c 0,-0.0604 -0.04747,-0.10782 -0.107844,-0.10782 -0.06469,0 -0.112131,0.0474 -0.112131,0.10782 v 0.62106 c 0,0.36659 0.20701,0.55636 0.534803,0.55636 z m 0,0"
       style="fill:#000000;fill-opacity:1;stroke:none;stroke-width:0.27602378" />
    <path
       inkscape:connector-curvature="0"
       id="path7327"
       d="m 45.679857,175.35142 c 0,0.0604 0.05175,0.10782 0.112131,0.10782 0.06038,0 0.107844,-0.0474 0.107844,-0.10782 v -0.79789 l 0.646906,0.8367 c 0.03021,0.0388 0.0604,0.069 0.112157,0.069 h 0.0087 c 0.06038,0 0.107818,-0.0517 0.107818,-0.11213 v -1.05234 c 0,-0.0604 -0.04744,-0.10783 -0.107818,-0.10783 -0.06038,0 -0.107844,0.0474 -0.107844,0.10783 v 0.772 l -0.629656,-0.81513 c -0.03019,-0.0388 -0.0604,-0.0647 -0.112156,-0.0647 h -0.02593 c -0.06038,0 -0.11213,0.0517 -0.11213,0.11213 z m 0,0"
       style="fill:#000000;fill-opacity:1;stroke:none;stroke-width:0.27602378" />
    <path
       inkscape:connector-curvature="0"
       id="path7323"
       d="m 52.036525,175.35142 c 0,0.0604 0.05175,0.10782 0.11213,0.10782 0.06038,0 0.112157,-0.0474 0.112157,-0.10782 v -0.34072 h 0.276013 l 0.306203,0.39247 c 0.02593,0.0345 0.05606,0.0561 0.107844,0.0561 0.05175,0 0.103505,-0.0388 0.103505,-0.10351 0,-0.0345 -0.01297,-0.0561 -0.0345,-0.0819 l -0.24154,-0.30191 c 0.168222,-0.0561 0.284665,-0.17682 0.284665,-0.37522 v -0.004 c 0,-0.11213 -0.0345,-0.2027 -0.103505,-0.27171 -0.07766,-0.0776 -0.202724,-0.12507 -0.362294,-0.12507 h -0.448548 c -0.06038,0 -0.11213,0.0474 -0.11213,0.11213 z m 0.224287,-0.5348 v -0.42266 h 0.31914 c 0.163883,0 0.258763,0.0733 0.258763,0.21133 0,0.12939 -0.09919,0.21133 -0.258763,0.21133 z m 0,0"
       style="fill:#000000;fill-opacity:1;stroke:none;stroke-width:0.27602378" />
    <path
       inkscape:connector-curvature="0"
       id="path7319"
       d="m 53.509169,175.45061 h 0.741812 c 0.05178,0 0.09922,-0.0431 0.09922,-0.0992 0,-0.0517 -0.04744,-0.0992 -0.09922,-0.0992 h -0.629655 v -0.3364 h 0.539088 c 0.05175,0 0.09919,-0.0431 0.09919,-0.0949 0,-0.0561 -0.04744,-0.10351 -0.09919,-0.10351 h -0.539088 v -0.32347 h 0.62103 c 0.05178,0 0.09491,-0.0431 0.09491,-0.0992 0,-0.0561 -0.04313,-0.0992 -0.09491,-0.0992 h -0.733187 c -0.06038,0 -0.11213,0.0474 -0.11213,0.11214 v 1.03077 c 0,0.0647 0.05175,0.11214 0.11213,0.11214 z m 0,0"
       style="fill:#000000;fill-opacity:1;stroke:none;stroke-width:0.27602378" />
    <path
       inkscape:connector-curvature="0"
       id="path7315"
       d="m 55.092885,175.46786 c 0.267388,0 0.448522,-0.13801 0.448522,-0.37522 v -0.004 c 0,-0.20701 -0.133694,-0.3019 -0.401082,-0.36659 -0.241511,-0.0561 -0.297603,-0.0992 -0.297603,-0.19839 0,-0.0863 0.07334,-0.15095 0.202724,-0.15095 0.09919,0 0.194072,0.0302 0.288951,0.0949 0.0172,0.0129 0.0345,0.0173 0.05606,0.0173 0.06038,0 0.107818,-0.0474 0.107818,-0.10351 0,-0.0431 -0.02593,-0.0733 -0.05175,-0.0863 -0.112131,-0.0776 -0.237199,-0.11645 -0.39677,-0.11645 -0.250163,0 -0.426984,0.14664 -0.426984,0.36228 v 0.004 c 0,0.2329 0.146632,0.31053 0.414046,0.37522 0.237199,0.0517 0.284639,0.10351 0.284639,0.18977 v 0.004 c 0,0.0949 -0.08625,0.15957 -0.219948,0.15957 -0.138007,0 -0.250137,-0.0474 -0.353669,-0.12938 -0.01296,-0.0129 -0.0345,-0.0216 -0.06469,-0.0216 -0.05607,0 -0.103505,0.0474 -0.103505,0.10351 0,0.0345 0.0172,0.0647 0.04313,0.0863 0.138006,0.10351 0.301916,0.15526 0.470111,0.15526 z m 0,0"
       style="fill:#000000;fill-opacity:1;stroke:none;stroke-width:0.27602378" />
    <path
       inkscape:connector-curvature="0"
       id="path7311"
       d="m 55.975059,175.45061 h 0.741812 c 0.05178,0 0.09922,-0.0431 0.09922,-0.0992 0,-0.0517 -0.04744,-0.0992 -0.09922,-0.0992 h -0.629655 v -0.3364 h 0.539089 c 0.05175,0 0.09919,-0.0431 0.09919,-0.0949 0,-0.0561 -0.04744,-0.10351 -0.09919,-0.10351 h -0.539089 v -0.32347 h 0.62103 c 0.05178,0 0.09491,-0.0431 0.09491,-0.0992 0,-0.0561 -0.04313,-0.0992 -0.09491,-0.0992 h -0.733187 c -0.06038,0 -0.11213,0.0474 -0.11213,0.11214 v 1.03077 c 0,0.0647 0.05175,0.11214 0.11213,0.11214 z m 0,0"
       style="fill:#000000;fill-opacity:1;stroke:none;stroke-width:0.27602378" />
    <path
       inkscape:connector-curvature="0"
       id="path7307"
       d="m 57.445693,175.35142 c 0,0.0604 0.05175,0.10782 0.11213,0.10782 0.06038,0 0.112131,-0.0474 0.112131,-0.10782 v -0.95315 h 0.306202 c 0.05609,0 0.09922,-0.0474 0.09922,-0.0992 0,-0.0561 -0.04313,-0.10351 -0.09922,-0.10351 h -0.836692 c -0.05607,0 -0.09919,0.0474 -0.09919,0.10351 0,0.0517 0.04313,0.0992 0.09919,0.0992 h 0.306229 z m 0,0"
       style="fill:#000000;fill-opacity:1;stroke:none;stroke-width:0.27602378" />
    <path
       style="fill:none;stroke:#000000;stroke-width:0.18383184;stroke-linecap:round;stroke-linejoin:round;stroke-miterlimit:10;stroke-opacity:1"
       d="m 34.74558,181.31115 v 10.7908"
       id="path35805"
       inkscape:connector-curvature="0" />
    <path
       style="fill:none;stroke:#000000;stroke-width:0.18383184;stroke-linecap:round;stroke-linejoin:round;stroke-miterlimit:10;stroke-opacity:1"
       d="m 75.22683,179.72419 v 10.78972"
       id="path35807"
       inkscape:connector-curvature="0" />
    <path
       style="fill:none;stroke:#000000;stroke-width:0.18383184;stroke-linecap:round;stroke-linejoin:round;stroke-miterlimit:10;stroke-opacity:1"
       d="m 55.118497,179.72419 v 10.78972"
       id="path35809"
       inkscape:connector-curvature="0" />
    <path
       style="fill:none;stroke:#000000;stroke-width:0.18383184;stroke-linecap:round;stroke-linejoin:round;stroke-miterlimit:10;stroke-opacity:1"
       d="m 85.54558,179.72419 v 10.78972"
       id="path35811"
       inkscape:connector-curvature="0" />
    <path
       style="fill:none;stroke:#000000;stroke-width:0.18383184;stroke-linecap:round;stroke-linejoin:round;stroke-miterlimit:10;stroke-opacity:1"
       d="m 95.599747,179.72419 v 10.78972"
       id="path35813"
       inkscape:connector-curvature="0" />
    <path
       style="fill:none;stroke:#000000;stroke-width:0.18383184;stroke-linecap:round;stroke-linejoin:round;stroke-miterlimit:10;stroke-opacity:1"
       d="m 65.172664,179.72419 v 10.78972"
       id="path35817"
       inkscape:connector-curvature="0" />
    <path
       inkscape:connector-curvature="0"
       id="path7303"
       d="m 41.048061,185.72278 h 0.741813 c 0.05178,0 0.09922,-0.0431 0.09922,-0.0992 0,-0.0517 -0.04744,-0.0992 -0.09922,-0.0992 h -0.629656 v -0.3364 h 0.539089 c 0.05175,0 0.09919,-0.0431 0.09919,-0.0949 0,-0.0561 -0.04744,-0.10351 -0.09919,-0.10351 h -0.539089 v -0.32346 h 0.62103 c 0.05178,0 0.09491,-0.0431 0.09491,-0.0992 0,-0.0561 -0.04313,-0.0992 -0.09491,-0.0992 h -0.733187 c -0.06038,0 -0.11213,0.0474 -0.11213,0.11213 v 1.03077 c 0,0.0647 0.05175,0.11214 0.11213,0.11214 z m 0,0"
       style="fill:#000000;fill-opacity:1;stroke:none;stroke-width:0.27602378" />
    <path
       inkscape:connector-curvature="0"
       id="path7299"
       d="m 42.13198,185.62789 c 0,0.0647 0.05175,0.10351 0.103505,0.10351 0.04744,0 0.07763,-0.0216 0.107818,-0.0604 l 0.332105,-0.43129 0.336391,0.43992 c 0.02593,0.0345 0.05175,0.0517 0.09922,0.0517 0.06469,0 0.11213,-0.0474 0.11213,-0.10782 0,-0.0302 -0.0172,-0.0604 -0.0345,-0.0819 l -0.370919,-0.46148 0.349356,-0.4356 c 0.0217,-0.0302 0.0345,-0.0517 0.0345,-0.0863 0,-0.0604 -0.05175,-0.0992 -0.09919,-0.0992 -0.04747,0 -0.07766,0.0216 -0.107844,0.0604 l -0.314828,0.40972 -0.314854,-0.41834 c -0.03019,-0.0345 -0.05607,-0.0517 -0.103505,-0.0517 -0.06038,0 -0.107818,0.0474 -0.107818,0.10782 0,0.0302 0.0172,0.0561 0.0345,0.0819 l 0.349356,0.43559 -0.37092,0.46148 c -0.0217,0.0259 -0.0345,0.0518 -0.0345,0.0819 z m 0,0"
       style="fill:#000000;fill-opacity:1;stroke:none;stroke-width:0.27602378" />
    <path
       inkscape:connector-curvature="0"
       id="path7295"
       d="m 43.851428,185.62358 c 0,0.0604 0.05175,0.10782 0.11213,0.10782 0.06038,0 0.11213,-0.0474 0.11213,-0.10782 v -0.95314 h 0.306203 c 0.05609,0 0.09922,-0.0475 0.09922,-0.0992 0,-0.0561 -0.04313,-0.1035 -0.09922,-0.1035 h -0.836692 c -0.05607,0 -0.09919,0.0474 -0.09919,0.1035 0,0.0517 0.04313,0.0992 0.09919,0.0992 h 0.306229 z m 0,0"
       style="fill:#000000;fill-opacity:1;stroke:none;stroke-width:0.27602378" />
    <path
       inkscape:connector-curvature="0"
       id="path7287"
       d="m 45.828288,185.74434 c 0.202698,0 0.336418,-0.0647 0.452861,-0.1682 0.0217,-0.0173 0.03881,-0.0474 0.03881,-0.0776 0,-0.0561 -0.05175,-0.10351 -0.107818,-0.10351 -0.02593,0 -0.04744,0.009 -0.06469,0.0259 -0.09059,0.0776 -0.18116,0.12076 -0.314854,0.12076 -0.237199,0 -0.414046,-0.2027 -0.414046,-0.44853 0,-0.24584 0.176847,-0.44423 0.414046,-0.44423 0.120756,0 0.215635,0.0431 0.301916,0.11214 0.01296,0.0129 0.0345,0.0216 0.06469,0.0216 0.06038,0 0.11213,-0.0474 0.11213,-0.10782 0,-0.0388 -0.0217,-0.069 -0.04313,-0.0863 -0.11213,-0.0863 -0.237225,-0.14232 -0.431297,-0.14232 -0.379519,0 -0.646933,0.29327 -0.646933,0.64693 v 0.004 c 0,0.36228 0.271727,0.64693 0.638307,0.64693 z m 0,0"
       style="fill:#000000;fill-opacity:1;stroke:none;stroke-width:0.27602378" />
    <path
       inkscape:connector-curvature="0"
       id="path7283"
       d="m 46.622144,185.61064 c 0,0.0647 0.05175,0.11214 0.112131,0.11214 h 0.677121 c 0.05607,0 0.103532,-0.0431 0.103532,-0.0992 0,-0.0561 -0.04747,-0.10351 -0.103532,-0.10351 h -0.564965 v -0.95314 c 0,-0.0604 -0.05178,-0.10782 -0.112156,-0.10782 -0.06038,0 -0.112131,0.0474 -0.112131,0.10782 z m 0,0"
       style="fill:#000000;fill-opacity:1;stroke:none;stroke-width:0.27602378" />
    <path
       inkscape:connector-curvature="0"
       id="path7279"
       d="m 47.77668,185.62358 c 0,0.0604 0.05175,0.10782 0.11213,0.10782 0.06038,0 0.112157,-0.0474 0.112157,-0.10782 v -0.26308 l 0.202698,-0.19408 0.405394,0.51323 c 0.0217,0.0302 0.04744,0.0517 0.09059,0.0517 0.06469,0 0.11213,-0.0474 0.11213,-0.10782 0,-0.0345 -0.01297,-0.0561 -0.03019,-0.0776 l -0.422672,-0.52617 0.38817,-0.37522 c 0.02593,-0.0259 0.04313,-0.0517 0.04313,-0.0863 0,-0.0517 -0.04313,-0.0992 -0.103505,-0.0992 -0.03884,0 -0.06472,0.0129 -0.09059,0.0388 l -0.595154,0.59949 v -0.53048 c 0,-0.0604 -0.05178,-0.10782 -0.112157,-0.10782 -0.06038,0 -0.11213,0.0474 -0.11213,0.10782 z m 0,0"
       style="fill:#000000;fill-opacity:1;stroke:none;stroke-width:0.27602378" />
    <path
       style="fill:#000000;fill-opacity:1;fill-rule:nonzero;stroke:none;stroke-width:0.27602378"
       d="m 79.014605,187.26933 c 0,-0.35581 -0.291121,-0.64693 -0.646906,-0.64693 h -6.281711 c -0.355812,0 -0.646933,0.29112 -0.646933,0.64693 v 6.28278 c 0,0.35581 0.291121,0.64693 0.646933,0.64693 h 6.281711 c 0.355785,0 0.646906,-0.29112 0.646906,-0.64693 z m 0,0"
       id="path37367"
       inkscape:connector-curvature="0" />
    <path
       style="fill:#000000;fill-opacity:1;fill-rule:nonzero;stroke:none;stroke-width:0.27602378"
       d="m 89.333355,187.26933 c 0,-0.35581 -0.291121,-0.64693 -0.646959,-0.64693 h -6.281684 c -0.355812,0 -0.646907,0.29112 -0.646907,0.64693 v 6.28278 c 0,0.35581 0.291095,0.64693 0.646907,0.64693 h 6.281684 c 0.355838,0 0.646959,-0.29112 0.646959,-0.64693 z m 0,0"
       id="path37369"
       inkscape:connector-curvature="0" />
    <path
       style="fill:#000000;fill-opacity:1;fill-rule:nonzero;stroke:none;stroke-width:0.27602378"
       d="m 99.387522,187.26933 c 0,-0.35581 -0.291121,-0.64693 -0.646906,-0.64693 h -6.28277 c -0.355838,0 -0.645874,0.29112 -0.645874,0.64693 v 6.28278 c 0,0.35581 0.290036,0.64693 0.645874,0.64693 h 6.28277 c 0.355785,0 0.646906,-0.29112 0.646906,-0.64693 z m 0,0"
       id="path37371"
       inkscape:connector-curvature="0" />
    <text
       xml:space="preserve"
       style="font-style:normal;font-weight:normal;font-size:2.11666667px;line-height:1.25;font-family:sans-serif;letter-spacing:0px;word-spacing:0px;fill:#000000;fill-opacity:1;stroke:none;stroke-width:0.26458332;"
       x="82.720207"
       y="175.00819"
       id="text4368"><tspan
         sodipodi:role="line"
         id="tspan4366"
         x="82.720207"
         y="177.58299"
         style="stroke-width:0.26458332;font-size:2.11666667px;" /></text>
    <text
       xml:space="preserve"
       style="font-style:normal;font-weight:normal;font-size:2.11666667px;line-height:1.25;font-family:sans-serif;letter-spacing:0px;word-spacing:0px;fill:#000000;fill-opacity:1;stroke:none;stroke-width:0.26458332;"
       x="84.468346"
       y="175.03181"
       id="text4372"><tspan
         sodipodi:role="line"
         id="tspan4370"
         x="84.468346"
         y="177.60661"
         style="stroke-width:0.26458332;font-size:2.11666667px;" /></text>
    <text
       xml:space="preserve"
       style="font-style:normal;font-weight:normal;font-size:2.11666656px;line-height:1.25;font-family:sans-serif;letter-spacing:0px;word-spacing:0px;fill:#000000;fill-opacity:1;stroke:none;stroke-width:0.26458332"
       x="94.768196"
       y="175.81139"
       id="text4380"><tspan
         sodipodi:role="line"
         id="tspan4378"
         x="94.768196"
         y="177.74249"
         style="stroke-width:0.26458332" /></text>
    <g
       aria-label="GATE X"
       style="font-style:normal;font-weight:normal;font-size:2.11666656px;line-height:1.25;font-family:sans-serif;letter-spacing:0px;word-spacing:0px;fill:#000000;fill-opacity:1;stroke:none;stroke-width:0.26458332"
       id="text4384">
      <path
         d="m 83.711318,176.17805 q -0.0689,0.0269 -0.18259,0.0537 -0.113688,0.0262 -0.226688,0.0262 -0.261827,0 -0.409966,-0.14194 -0.148139,-0.14263 -0.148139,-0.39343 0,-0.23909 0.149517,-0.38516 0.149517,-0.14676 0.416857,-0.14676 0.101285,0 0.192925,0.0186 0.09164,0.0179 0.20395,0.0724 v 0.24047 h -0.02963 q -0.01929,-0.0145 -0.0565,-0.0407 -0.03721,-0.0269 -0.07166,-0.0455 -0.03996,-0.0221 -0.09371,-0.0379 -0.05306,-0.0159 -0.112999,-0.0159 -0.07028,0 -0.127469,0.0207 -0.05719,0.0207 -0.102664,0.0634 -0.04341,0.0414 -0.0689,0.10542 -0.0248,0.0634 -0.0248,0.14677 0,0.17018 0.09026,0.26044 0.09026,0.0903 0.26665,0.0903 0.01516,0 0.03307,-6.9e-4 0.0186,-6.9e-4 0.03376,-0.002 v -0.20119 h -0.204638 v -0.19362 h 0.473356 z"
         style="font-style:normal;font-variant:normal;font-weight:bold;font-stretch:normal;font-size:1.41111112px;font-family:sans-serif;-inkscape-font-specification:'sans-serif Bold';stroke-width:0.26458332"
         id="path4460" />
      <path
         d="m 84.895742,176.23662 h -0.273541 l -0.07097,-0.2074 h -0.380339 l -0.07097,0.2074 h -0.266651 l 0.378961,-1.02595 h 0.304546 z m -0.408589,-0.3955 -0.12609,-0.36794 -0.126091,0.36794 z"
         style="font-style:normal;font-variant:normal;font-weight:bold;font-stretch:normal;font-size:1.41111112px;font-family:sans-serif;-inkscape-font-specification:'sans-serif Bold';stroke-width:0.26458332"
         id="path4462" />
      <path
         d="m 85.847277,175.40911 h -0.320394 v 0.82751 H 85.2623 v -0.82751 h -0.320394 v -0.19844 h 0.905371 z"
         style="font-style:normal;font-variant:normal;font-weight:bold;font-stretch:normal;font-size:1.41111112px;font-family:sans-serif;-inkscape-font-specification:'sans-serif Bold';stroke-width:0.26458332"
         id="path4464" />
      <path
         d="m 86.748514,176.23662 h -0.742073 v -1.02595 h 0.742073 v 0.19844 h -0.478868 v 0.17707 h 0.444417 v 0.19844 h -0.444417 v 0.25356 h 0.478868 z"
         style="font-style:normal;font-variant:normal;font-weight:bold;font-stretch:normal;font-size:1.41111112px;font-family:sans-serif;-inkscape-font-specification:'sans-serif Bold';stroke-width:0.26458332"
         id="path4466" />
      <path
         d="m 88.383556,176.23662 h -0.305924 l -0.221175,-0.33762 -0.22531,0.33762 h -0.292144 l 0.363802,-0.51677 -0.356222,-0.50918 h 0.305235 l 0.213596,0.3197 0.219797,-0.3197 h 0.292833 l -0.35829,0.49885 z"
         style="font-style:normal;font-variant:normal;font-weight:bold;font-stretch:normal;font-size:1.41111112px;font-family:sans-serif;-inkscape-font-specification:'sans-serif Bold';stroke-width:0.26458332"
         id="path4468" />
    </g>
    <g
       aria-label="GATE Y"
       style="font-style:normal;font-weight:normal;font-size:2.11666656px;line-height:1.25;font-family:sans-serif;letter-spacing:0px;word-spacing:0px;fill:#000000;fill-opacity:1;stroke:none;stroke-width:0.26458332"
       id="text4384-1">
      <path
         d="m 93.766211,176.12336 q -0.0689,0.0269 -0.18259,0.0538 -0.113688,0.0262 -0.226687,0.0262 -0.261827,0 -0.409966,-0.14194 -0.14814,-0.14262 -0.14814,-0.39343 0,-0.23909 0.149518,-0.38516 0.149517,-0.14676 0.416856,-0.14676 0.101286,0 0.192926,0.0186 0.09164,0.0179 0.203949,0.0724 v 0.24047 h -0.02963 q -0.01929,-0.0145 -0.0565,-0.0406 -0.03721,-0.0269 -0.07166,-0.0455 -0.03996,-0.0221 -0.09371,-0.0379 -0.05305,-0.0158 -0.112999,-0.0158 -0.07028,0 -0.127468,0.0207 -0.05719,0.0207 -0.102664,0.0634 -0.04341,0.0413 -0.0689,0.10542 -0.02481,0.0634 -0.02481,0.14676 0,0.17019 0.09026,0.26045 0.09026,0.0903 0.26665,0.0903 0.01516,0 0.03307,-6.9e-4 0.0186,-6.9e-4 0.03376,-0.002 v -0.20119 h -0.204639 v -0.19362 h 0.473356 z"
         style="font-style:normal;font-variant:normal;font-weight:bold;font-stretch:normal;font-size:1.41111112px;font-family:sans-serif;-inkscape-font-specification:'sans-serif Bold';stroke-width:0.26458332"
         id="path4471" />
      <path
         d="m 94.950635,176.18193 h -0.273541 l -0.07097,-0.20739 h -0.380339 l -0.07097,0.20739 h -0.26665 l 0.37896,-1.02595 h 0.304547 z m -0.408588,-0.3955 -0.126091,-0.36793 -0.12609,0.36793 z"
         style="font-style:normal;font-variant:normal;font-weight:bold;font-stretch:normal;font-size:1.41111112px;font-family:sans-serif;-inkscape-font-specification:'sans-serif Bold';stroke-width:0.26458332"
         id="path4473" />
      <path
         d="m 95.902171,175.35442 h -0.320394 v 0.82751 h -0.264584 v -0.82751 H 94.9968 v -0.19844 h 0.905371 z"
         style="font-style:normal;font-variant:normal;font-weight:bold;font-stretch:normal;font-size:1.41111112px;font-family:sans-serif;-inkscape-font-specification:'sans-serif Bold';stroke-width:0.26458332"
         id="path4475" />
      <path
         d="m 96.803408,176.18193 h -0.742074 v -1.02595 h 0.742074 v 0.19844 h -0.478869 v 0.17708 h 0.444418 v 0.19843 h -0.444418 v 0.25356 h 0.478869 z"
         style="font-style:normal;font-variant:normal;font-weight:bold;font-stretch:normal;font-size:1.41111112px;font-family:sans-serif;-inkscape-font-specification:'sans-serif Bold';stroke-width:0.26458332"
         id="path4477" />
      <path
         d="m 98.410889,175.15598 -0.378271,0.62908 v 0.39687 h -0.264584 v -0.38447 l -0.384472,-0.64148 h 0.300412 l 0.221864,0.39688 0.214285,-0.39688 z"
         style="font-style:normal;font-variant:normal;font-weight:bold;font-stretch:normal;font-size:1.41111112px;font-family:sans-serif;-inkscape-font-specification:'sans-serif Bold';stroke-width:0.26458332"
         id="path4479" />
    </g>
    <g
       aria-label="CV"
       style="font-style:normal;font-weight:normal;font-size:2.11666656px;line-height:1.25;font-family:sans-serif;letter-spacing:0px;word-spacing:0px;fill:#000000;fill-opacity:1;stroke:none;stroke-width:0.26458332"
       id="text4384-1-4">
      <path
         d="m 74.518177,176.29641 q -0.114377,0 -0.211529,-0.0338 -0.09646,-0.0338 -0.166054,-0.1006 -0.06959,-0.0668 -0.108176,-0.16674 -0.0379,-0.0999 -0.0379,-0.23082 0,-0.12196 0.03652,-0.22118 0.03652,-0.0992 0.106109,-0.17019 0.06684,-0.0682 0.165365,-0.10542 0.09922,-0.0372 0.216352,-0.0372 0.06477,0 0.116444,0.008 0.05237,0.007 0.09646,0.0186 0.04616,0.0131 0.08337,0.0296 0.0379,0.0159 0.06615,0.0296 v 0.24873 h -0.03032 q -0.01929,-0.0165 -0.04892,-0.0393 -0.02894,-0.0227 -0.06615,-0.0448 -0.0379,-0.0221 -0.08199,-0.0372 -0.0441,-0.0152 -0.0944,-0.0152 -0.05581,0 -0.106109,0.0179 -0.0503,0.0172 -0.09302,0.0579 -0.04065,0.0393 -0.06615,0.10404 -0.02481,0.0648 -0.02481,0.1571 0,0.0965 0.02687,0.16123 0.02756,0.0648 0.0689,0.10197 0.04203,0.0379 0.09371,0.0544 0.05168,0.0159 0.101975,0.0159 0.04823,0 0.09508,-0.0145 0.04754,-0.0145 0.08751,-0.0393 0.03376,-0.02 0.0627,-0.0427 0.02894,-0.0227 0.04754,-0.0393 h 0.02756 v 0.2453 q -0.03859,0.0172 -0.07373,0.0324 -0.03514,0.0152 -0.07372,0.0262 -0.0503,0.0145 -0.0944,0.022 -0.0441,0.008 -0.121267,0.008 z"
         style="font-style:normal;font-variant:normal;font-weight:bold;font-stretch:normal;font-size:1.41111112px;font-family:sans-serif;-inkscape-font-specification:'sans-serif Bold';stroke-width:0.26458332"
         id="path4455" />
      <path
         d="m 76.007147,175.25048 -0.374137,1.02595 h -0.296278 l -0.374138,-1.02595 h 0.277675 l 0.248047,0.72071 0.248047,-0.72071 z"
         style="font-style:normal;font-variant:normal;font-weight:bold;font-stretch:normal;font-size:1.41111112px;font-family:sans-serif;-inkscape-font-specification:'sans-serif Bold';stroke-width:0.26458332"
         id="path4457" />
    </g>
    <g
       aria-label="GRID SEQ"
       style="font-style:normal;font-weight:normal;font-size:2.11666656px;line-height:1.25;font-family:sans-serif;letter-spacing:0px;word-spacing:0px;fill:#000000;fill-opacity:1;stroke:none;stroke-width:0.26458332"
       id="text4505">
      <path
         d="m 61.545804,168.09064 q -0.172255,0.0672 -0.456475,0.13436 -0.284221,0.0655 -0.566718,0.0655 -0.654569,0 -1.024916,-0.35485 -0.370348,-0.35656 -0.370348,-0.98357 0,-0.59772 0.373793,-0.9629 0.373793,-0.36691 1.042141,-0.36691 0.253215,0 0.482313,0.0465 0.229099,0.0448 0.509875,0.18087 v 0.60117 h -0.07407 q -0.04823,-0.0362 -0.141249,-0.10163 -0.09302,-0.0672 -0.179145,-0.11369 -0.09991,-0.0551 -0.234266,-0.0947 -0.132637,-0.0396 -0.282498,-0.0396 -0.1757,0 -0.318671,0.0517 -0.142972,0.0517 -0.25666,0.15847 -0.108521,0.10336 -0.172255,0.26355 -0.06201,0.15848 -0.06201,0.3669 0,0.42547 0.225654,0.65113 0.225654,0.22565 0.666626,0.22565 0.0379,0 0.08268,-0.002 0.04651,-0.002 0.0844,-0.005 v -0.50298 h -0.511596 v -0.48404 h 1.18339 z"
         style="font-style:normal;font-variant:normal;font-weight:bold;font-stretch:normal;font-size:3.52777767px;font-family:sans-serif;-inkscape-font-specification:'sans-serif Bold';stroke-width:0.26458332"
         id="path4507" />
      <path
         d="m 63.574965,166.45767 q 0,-0.0965 -0.03962,-0.16537 -0.03962,-0.0689 -0.136081,-0.10852 -0.06718,-0.0276 -0.156752,-0.0327 -0.08957,-0.007 -0.208428,-0.007 h -0.239434 v 0.69074 h 0.20326 q 0.158475,0 0.265273,-0.0155 0.106798,-0.0155 0.179145,-0.0706 0.0689,-0.0534 0.09991,-0.11713 0.03273,-0.0655 0.03273,-0.17398 z m 1.031806,1.77939 h -0.807875 l -0.699354,-0.94051 h -0.304891 v 0.94051 h -0.658013 v -2.56487 h 1.10932 q 0.227377,0 0.391019,0.0258 0.163642,0.0258 0.306613,0.11196 0.144694,0.0861 0.229099,0.22393 0.08613,0.13608 0.08613,0.34279 0,0.28422 -0.132636,0.46336 -0.130913,0.17915 -0.375515,0.29801 z"
         style="font-style:normal;font-variant:normal;font-weight:bold;font-stretch:normal;font-size:3.52777767px;font-family:sans-serif;-inkscape-font-specification:'sans-serif Bold';stroke-width:0.26458332"
         id="path4509" />
      <path
         d="m 66.286255,168.23706 h -1.502062 v -0.45475 h 0.420302 v -1.65537 h -0.420302 v -0.45475 h 1.502062 v 0.45475 h -0.420302 v 1.65537 h 0.420302 z"
         style="font-style:normal;font-variant:normal;font-weight:bold;font-stretch:normal;font-size:3.52777767px;font-family:sans-serif;-inkscape-font-specification:'sans-serif Bold';stroke-width:0.26458332"
         id="path4511" />
      <path
         d="m 69.252482,166.95721 q 0,0.35829 -0.163642,0.64251 -0.163642,0.2825 -0.413411,0.43408 -0.187758,0.11369 -0.411689,0.15847 -0.223931,0.0448 -0.530545,0.0448 h -0.904337 v -2.56487 h 0.930175 q 0.313504,0 0.54088,0.0534 0.227377,0.0517 0.382406,0.14814 0.265272,0.16191 0.416856,0.43752 0.153307,0.27389 0.153307,0.64596 z m -0.683851,-0.005 q 0,-0.25321 -0.09302,-0.43236 -0.0913,-0.18087 -0.29111,-0.2825 -0.101631,-0.0499 -0.208429,-0.0672 -0.105075,-0.0189 -0.318671,-0.0189 h -0.167087 v 1.60541 h 0.167087 q 0.235989,0 0.346232,-0.0207 0.110243,-0.0224 0.215319,-0.0792 0.180867,-0.10335 0.265272,-0.27561 0.0844,-0.17397 0.0844,-0.42891 z"
         style="font-style:normal;font-variant:normal;font-weight:bold;font-stretch:normal;font-size:3.52777767px;font-family:sans-serif;-inkscape-font-specification:'sans-serif Bold';stroke-width:0.26458332"
         id="path4513" />
      <path
         d="m 73.016249,167.43091 q 0,0.37896 -0.322117,0.61667 -0.320394,0.23599 -0.871609,0.23599 -0.318671,0 -0.556383,-0.0551 -0.235989,-0.0568 -0.442694,-0.14297 v -0.61495 h 0.07235 q 0.204983,0.16364 0.458197,0.25149 0.254937,0.0879 0.489204,0.0879 0.06029,0 0.158474,-0.0103 0.09819,-0.0103 0.160197,-0.0344 0.07579,-0.031 0.124024,-0.0775 0.04995,-0.0465 0.04995,-0.13781 0,-0.0844 -0.07235,-0.14469 -0.07062,-0.062 -0.208428,-0.0947 -0.144694,-0.0344 -0.306613,-0.0637 -0.160197,-0.031 -0.301446,-0.0775 -0.323839,-0.10507 -0.466811,-0.28422 -0.141249,-0.18087 -0.141249,-0.44786 0,-0.35829 0.320394,-0.58395 0.322117,-0.22737 0.826823,-0.22737 0.253215,0 0.499539,0.05 0.248047,0.0482 0.428914,0.1223 v 0.59084 h -0.07062 q -0.155029,-0.12403 -0.380683,-0.20671 -0.223931,-0.0844 -0.458198,-0.0844 -0.08268,0 -0.165364,0.0121 -0.08096,0.0103 -0.156752,0.0413 -0.06718,0.0258 -0.115411,0.0792 -0.04823,0.0517 -0.04823,0.11886 0,0.10163 0.07751,0.15675 0.07752,0.0534 0.292834,0.0982 0.141248,0.0293 0.27044,0.0568 0.130913,0.0276 0.280775,0.0758 0.294555,0.0965 0.434082,0.26355 0.141249,0.16537 0.141249,0.43064 z"
         style="font-style:normal;font-variant:normal;font-weight:bold;font-stretch:normal;font-size:3.52777767px;font-family:sans-serif;-inkscape-font-specification:'sans-serif Bold';stroke-width:0.26458332"
         id="path4515" />
      <path
         d="m 75.326186,168.23706 h -1.855184 v -2.56487 h 1.855184 v 0.49609 h -1.197171 v 0.4427 h 1.111043 v 0.49609 h -1.111043 v 0.6339 h 1.197171 z"
         style="font-style:normal;font-variant:normal;font-weight:bold;font-stretch:normal;font-size:3.52777767px;font-family:sans-serif;-inkscape-font-specification:'sans-serif Bold';stroke-width:0.26458332"
         id="path4517" />
      <path
         d="m 77.500041,167.60489 q 0.09646,-0.11714 0.142971,-0.27561 0.04651,-0.1602 0.04651,-0.37552 0,-0.23082 -0.0534,-0.39274 -0.0534,-0.16192 -0.139526,-0.26183 -0.08785,-0.10335 -0.203261,-0.14986 -0.113688,-0.0465 -0.237711,-0.0465 -0.125746,0 -0.237712,0.0448 -0.110243,0.0448 -0.203261,0.14814 -0.08613,0.0965 -0.141249,0.26699 -0.0534,0.16881 -0.0534,0.39275 0,0.22909 0.05168,0.39101 0.0534,0.1602 0.139526,0.26183 0.08613,0.10163 0.201538,0.14986 0.115411,0.0482 0.24288,0.0482 0.127468,0 0.242879,-0.0482 0.11541,-0.05 0.201538,-0.1533 z m 0.07062,0.60116 q 0.0069,0.17054 0.09302,0.24461 0.08613,0.0741 0.294556,0.0741 0.07062,0 0.167087,-0.0241 0.09646,-0.0241 0.134358,-0.0431 h 0.06546 v 0.45475 q -0.09646,0.0224 -0.210151,0.0396 -0.111965,0.0172 -0.344509,0.0172 -0.204983,0 -0.35829,-0.0517 -0.151584,-0.05 -0.253215,-0.14297 -0.09991,-0.0913 -0.149861,-0.21532 -0.04995,-0.12403 -0.05857,-0.27561 -0.575331,-0.0327 -0.897447,-0.38413 -0.320394,-0.35312 -0.320394,-0.94395 0,-0.6184 0.3514,-0.97669 0.351399,-0.36001 0.969794,-0.36001 0.616672,0 0.969794,0.36001 0.353123,0.35829 0.353123,0.97669 0,0.45647 -0.206706,0.78892 -0.206706,0.33073 -0.599447,0.46164 z"
         style="font-style:normal;font-variant:normal;font-weight:bold;font-stretch:normal;font-size:3.52777767px;font-family:sans-serif;-inkscape-font-specification:'sans-serif Bold';stroke-width:0.26458332"
         id="path4519" />
    </g>
  </g>
</svg>
